<?xml version="1.0" encoding="UTF-8"?>
<svg xmlns="http://www.w3.org/2000/svg" viewBox="0 0 1024 1024" width="1024" height="1024">
<path d="M0.25 0.25C341.42 0.25 682.58 0.25 1023.75 0.25C1023.75 341.42 1023.75 682.58 1023.75 1023.75C682.58 1023.75 341.42 1023.75 0.25 1023.75C0.25 682.58 0.25 341.42 0.25 0.25ZM778.06 278.92C776.31 279.26 774.55 279.6 772.8 279.94C761.54 280.25 749.67 284.12 738.5 286.11C733.05 287.08 725.36 286.99 720.83 290C719.22 290.11 717.61 290.21 716 290.32C715.61 290.54 715.22 290.75 714.83 290.97C712.89 291.29 710.94 291.61 709 291.93C705.89 292.52 702.77 293.11 699.66 293.7C689.69 295.34 682.79 302.97 682.15 313C682.21 314.67 682.27 316.33 682.33 318C684.38 327.02 690.58 334.87 700.18 336.16C703.47 338.96 710.1 337.57 714.44 338.5C707.92 346.65 701.39 354.81 694.86 362.96C687.83 371.26 680.79 379.55 673.76 387.85C669.75 392.38 665.75 396.9 661.74 401.43C658.52 405.24 655.29 409.04 652.07 412.85C651.3 413.72 650.53 414.58 649.76 415.44C639.2 426.18 630.59 438.78 620.01 449.51C614.95 454.65 608.27 459.67 600.61 458.66C594.06 457.81 589.29 452.36 584.66 448.25C583.43 446.83 582.2 445.42 580.97 444C579.06 441.67 577.15 439.35 575.23 437.02C573.06 433.43 569.9 430.52 567.2 427.31C557.78 416.09 545.07 402.27 529 403.22C527.29 403.4 525.58 403.59 523.87 403.77C522.91 403.89 521.96 404.01 521 404.13C520.28 404.35 519.56 404.58 518.85 404.8C518.23 404.94 517.62 405.08 517 405.22C516 405.6 515 405.98 514 406.37C513.03 406.74 512.07 407.12 511.1 407.5C511.08 407.59 511.06 407.69 511.03 407.78C505.61 409.57 500.94 414.43 497.21 418.68C489.16 427.84 482.84 438.37 475.82 448.31C463.66 465.54 451.82 483.05 439.98 500.48C434.17 509.02 428.79 517.85 422.57 526.11C418.34 531.71 414.12 537.67 409.31 542.8C406.04 546.29 402.02 549.33 399.01 552.96C397.29 554.48 395.56 556 393.84 557.53C390.2 559.69 386.57 561.86 382.93 564.03C379.28 565.65 375.62 567.26 371.97 568.88C369.95 569.58 367.94 570.28 365.93 570.97C362.95 571.71 359.98 572.44 357 573.18C356.06 573.4 355.12 573.62 354.18 573.85C353.12 573.95 352.06 574.06 351 574.17C349.67 574.26 348.33 574.35 347 574.45C346.33 574.54 345.67 574.64 345 574.73C327 574.84 309 574.95 291 575.06C287.64 574.85 284.33 574.57 281.16 573.36C262.74 566.35 264.83 542.85 270.75 528C272.16 525.5 273.56 523 274.97 520.5C273.98 520 273 519.5 272.02 519C272.39 518.61 272.77 518.22 273.14 517.83C273.93 518.46 274.71 519.09 275.5 519.72C276.27 518.43 277.04 517.14 277.81 515.86C277.88 514.74 277.94 513.62 278 512.5C278.33 512.33 278.66 512.17 278.99 512C279.16 512.77 279.33 513.53 279.5 514.3C280.5 512.87 281.5 511.43 282.5 510C285.6 506.86 289.17 504.8 293.04 502.52C317.99 487.82 348.92 489.28 376.05 495.88C386.53 501.15 395.44 505.99 399.76 517.69C401.24 521.69 401.3 526.08 402.5 530C412.95 515.17 423.4 500.33 433.86 485.5C431.91 483.66 429.96 481.83 428.01 479.99C424.65 473.69 409.18 466.17 402.19 464.69C401.37 464.3 400.55 463.9 399.74 463.5C400.59 462.83 401.45 462.17 402.3 461.5C402.26 461 402.23 460.5 402.19 460C406.63 461.86 415.16 453.11 418.26 449.79C428.18 439.15 433.86 423.9 434.21 409.5C434.32 405.17 434.85 399.86 433.13 395.94C432.45 392.55 431.78 389.16 431.1 385.77C430.57 379.36 424.39 366.81 419.17 362.89C410.08 350.59 391.53 341.07 376.99 337.42C372.09 336.19 366.02 334.2 361 334.68C360.67 334.73 360.33 334.78 360 334.84C359.83 334.6 359.67 334.36 359.5 334.12C357.92 334.1 356.34 334.09 354.76 334.07C350.84 333.99 346.92 333.91 343 333.83C328.36 332.26 313.22 333.04 298.5 333.06C285.25 333.08 271.8 332.27 259 336.29C257.34 336.9 255.68 337.5 254.02 338.11C253.39 338.39 252.76 338.66 252.13 338.94C249.09 340.62 246.04 342.31 242.99 343.99C242.62 344.3 242.24 344.62 241.86 344.93C235.59 347.5 228.75 356.45 226.89 362.85C226.62 363.23 226.35 363.61 226.08 363.99C222.12 371.21 220.98 379.91 220.28 388C220.25 389.67 220.21 391.33 220.18 393C220.17 393.67 220.17 394.33 220.17 395C220.17 397.33 220.16 399.67 220.16 402C220.16 404 220.16 406 220.16 408C220.16 408.67 220.17 409.33 220.17 410C220.17 411 220.17 412 220.17 413C220.17 414 220.17 415 220.17 416C220.17 418.67 220.17 421.33 220.17 424C220.18 444.67 220.19 465.33 220.2 486C220.3 487.58 220.4 489.15 220.5 490.73C221.99 488.14 223.48 485.55 224.96 482.95C230.64 476.3 236.31 469.64 241.99 462.99C249.75 457.82 257.52 452.66 265.29 447.5C266.19 443.3 265.67 438.81 265.66 434.5C265.65 424.83 265.6 415.16 265.66 405.5C265.73 394.77 268.68 383.78 279.02 378.53C281.84 377.1 284.87 376.43 287.96 375.85C308.86 376.19 342.32 372.5 361.09 380.45C365.25 382.21 369.55 384.51 372.58 387.95C374.47 390.1 375.76 392.42 378 394.06C377.65 394.49 377.31 394.91 376.96 395.33C377.31 395.78 377.66 396.24 378 396.69C378.03 396.79 378.07 396.9 378.1 397C378.08 397.42 378.06 397.83 378.04 398.25C378.17 398.63 378.3 399.02 378.44 399.41C378.67 400.59 378.9 401.77 379.14 402.96C379.31 403.3 379.49 403.65 379.66 404C379.98 410.43 379.75 416.06 377.93 422.26C377.77 422.63 377.61 423.01 377.45 423.39C370.5 435.81 359.19 441.96 345.44 444.76C339.81 445.91 340.09 449.12 334.5 446.7C334.64 450.87 333.42 449.79 330 451.5C330.01 452.84 330.82 455.33 330.59 456.47C330.52 456.84 329.31 457.18 329.44 457.5C329.49 457.62 331.4 458.9 332 459.5C331.17 460.67 330.33 461.83 329.5 463C331.56 463.87 331.97 462.78 333.28 463.22C333.32 463.23 333.5 464.51 335 465.17C335 465.44 335 465.72 335 466C332.83 465.67 330.67 465.33 328.5 465C327 465.5 325.5 466 324 466.5C326.67 466.93 329.33 467.35 332 467.78C317.7 469.08 302.34 470.94 289 476.53C289 476.19 289 475.84 289 475.5C288.17 475 287.33 474.5 286.5 474C286.33 475.22 286.17 476.44 286 477.67C282.07 479.51 278.14 481.35 274.21 483.19C273.14 483.13 272.07 483.06 271 483C273.79 481.59 274.9 478.78 278.5 480.02C280.67 476.47 280.45 478.57 281.81 477.25C282.11 476.97 281.87 475.41 282.53 475.41C283.34 475.4 284.04 476.81 284.5 477.23C284.34 473.65 285.71 473.73 287.5 471C287.04 470.54 285.23 469.67 285.22 468.66C285.21 467.44 287.1 467.14 286.75 465.69C286.24 463.59 284.74 465.08 285.5 461C284.33 459.83 283.17 458.67 282 457.5C280.27 458.67 279.64 458.21 277.5 457.02C277.01 457.4 276.88 458.17 276.34 458.47C275.45 458.97 272.71 459.3 271.26 460.03C270.83 460.3 270.41 460.57 269.98 460.84C267.89 462.15 265.79 463.46 263.7 464.76C262.14 465.8 260.58 466.84 259.02 467.88C237.7 482.77 224.35 507.01 220.69 532.45C219.64 539.76 218.87 547.69 220.1 555C221.14 566.55 219.56 575.6 223.2 587.36C227.73 601.96 239.37 613.84 254.67 616.71C262.54 618.19 270.53 617.81 278.5 617.85C288.12 617.91 297.75 618.04 307.37 617.86C309.58 617.9 311.79 617.93 314 617.96C317.67 617.96 321.33 617.96 325 617.95C326.33 617.91 327.66 617.87 328.99 617.83C334.33 617.81 339.66 617.8 345 617.79C347.67 617.77 350.33 617.75 353 617.73C376.76 617.34 401.72 612.12 422.22 599.7C428.05 596.17 438.99 588.92 441.99 582.99C448.21 580.07 453.48 571.62 457.63 566.16C459.6 563.57 462.04 561.05 463.06 558.07C467.68 555.14 472.71 545.39 476.03 540.55C485.67 526.5 495.21 512.37 504.87 498.33C510.42 490.26 517.64 478.26 528.5 477.14C532.28 476.75 535.3 478.02 538.77 479.09C539.81 479.83 540.85 480.57 541.89 481.3C549.24 489.21 556.6 497.12 563.95 505.03C564.76 507.24 566.3 508.8 567.79 510.72C575.95 521.17 586.69 528.93 600 530.73C602.33 530.71 604.67 530.69 607 530.67C622.22 527.4 632.42 518.46 642.09 506.62C644.98 503.08 649.55 499.18 650.98 494.97C655.99 492.02 661.46 483.6 665.45 478.93C676.02 466.51 686.7 454.19 697.12 441.65C701.3 436.61 710.93 427.49 712.97 421.95C715 419.64 717.03 417.33 719.06 415.01C731.06 400.97 743.06 386.92 755.05 372.88C755.54 372.7 756.02 372.52 756.5 372.33C756.78 373.89 757.06 375.44 757.34 377C758.91 384.07 761.33 390.65 767.09 395.44C777.15 403.83 792 401.64 799.26 390.74C802.88 385.31 802.93 378.79 803.1 372.5C803.37 363.35 803.82 354.15 803.7 345C803.74 342.52 803.79 340.04 803.83 337.57C804.18 333.24 804 328.85 804.12 324.5C804.45 312.3 808.09 292.5 797.11 284.06C792.32 279.04 785.6 278.1 779 278.52C778.69 278.65 778.38 278.78 778.06 278.92ZM755.84 332C745.93 343.36 736.02 354.72 726.11 366.08C726.27 365.43 726.44 364.77 726.6 364.12C727.5 362.94 728.41 361.77 729.31 360.6C732.88 358.64 745.11 343.29 748.75 338.98C751.05 336.25 752.14 333.09 755.84 332ZM399.17 371C399.07 371.58 398.96 372.16 398.86 372.74C393.8 366.86 388.73 360.98 383.67 355.1C385.72 354.33 387.61 356.61 389.25 358.26C393.12 362.15 395.58 366.98 399.17 371ZM726.11 366.08C724.07 368.67 722.04 371.26 720 373.86C720.33 372.74 720.67 371.62 721 370.5C721.5 369.67 722 368.83 722.5 368C723.7 367.36 724.91 366.72 726.11 366.08ZM718.91 375C717.69 376.33 716.46 377.65 715.24 378.98C715.16 378.49 715.08 377.99 715 377.5C715.83 376.67 716.67 375.83 717.5 375C717.97 375 718.44 375 718.91 375ZM687.97 473.82C685.5 475.98 678.07 483.7 677.24 486.69C676.36 489.88 677.08 494.19 677.07 497.5C677.04 504.98 676.77 512.54 677.19 520C677.19 523 677.19 526 677.19 529C677.19 530 677.19 531 677.19 532C677.19 534.67 677.2 537.33 677.21 540C677.2 542 677.2 544 677.19 546C677.19 550.67 677.19 555.33 677.19 560C677.19 562 677.19 564 677.19 566C677.19 568.67 677.19 571.33 677.19 574C676.54 586.39 675.82 599.05 684.59 608.89C693.08 618.41 707.41 620.07 718.25 613.73C721.09 612.08 723.77 610.15 725.1 607.15C734.77 598.86 731.65 571.55 731.66 559.5C731.67 527.83 731.64 496.17 731.63 464.5C731.63 450.67 732.32 436.55 731.5 422.78C716.99 439.8 702.48 456.81 687.97 473.82ZM331 447.5C324.68 445.51 316.36 447.76 309.7 448.5C314.07 449.08 317.34 448.69 321.53 448.03C324.68 447.54 327.88 448.12 331 447.5ZM501.83 459C500 461.02 498.17 463.05 496.34 465.07C496.23 464.55 496.11 464.02 496 463.5C497.5 462 499 460.5 500.5 459C500.94 459 501.39 459 501.83 459ZM335 466C336.5 466 338 466 339.5 466C339.67 466.2 339.83 466.4 340 466.6C338.67 466.78 337.34 466.96 336.01 467.14C335.67 466.76 335.34 466.38 335 466ZM321 467.53C319.33 467.53 317.67 467.53 316 467.53C317.67 467.53 319.33 467.53 321 467.53ZM489.07 474.35C486.29 480.11 481.62 485.28 477.98 490.58C472.54 498.5 467.45 506.67 462.02 514.6C444.66 539.94 428 566.07 403 584.74C404.46 580.04 410.29 577.65 413.77 574.49C418.82 569.9 423.75 564.87 428.11 559.64C444.46 540.02 458.33 518.2 472.59 497.05C474.77 493.81 476.25 490.16 478.53 487.03C479.96 485.08 481.86 483.36 483.17 481.34C485.05 478.45 485.59 475.79 489.07 474.35ZM510.97 513.87C504.02 523.99 497.08 534.1 490.13 544.22C485.4 551.11 480.67 558.01 475.94 564.9C474.95 566.24 473.96 567.57 472.98 568.9C471.28 571.21 469.58 573.51 467.89 575.82C465.32 578.65 462.76 581.47 460.19 584.3C457.92 586.51 456.17 589.18 453.96 591.46C444.25 601.46 433.21 610.03 420.85 616.5C426.53 618.17 432.59 617.4 438.5 617.44C447.63 617.49 456.9 618.27 466 617.63C477.45 617.4 490.81 619.95 501.01 613.51C515.66 604.25 514.46 589.8 514.36 574.5C514.28 561.84 514.26 549.16 514.31 536.5C514.33 529.35 514.74 522.11 514.05 515C514.03 512.75 514 513.18 512.5 511.55C511.99 512.32 511.48 513.1 510.97 513.87ZM399.8 587.16C395.29 590.11 390.78 593.07 386.27 596.02C386.9 595.16 387.53 594.3 388.17 593.43C388.94 592.96 389.72 592.48 390.5 592C391.44 591.39 392.39 590.78 393.33 590.17C394.72 589.11 396.11 588.06 397.5 587C398.27 587.05 399.03 587.1 399.8 587.16ZM186 745.82C186.67 745.82 187.33 745.83 188 745.83C190.5 745.72 193 745.62 195.5 745.52C195.52 742.68 195.53 739.84 195.55 737C195.56 732.67 195.57 728.33 195.58 724C195.58 723.33 195.59 722.67 195.59 722C195.57 717.33 195.56 712.67 195.54 708C195.53 696.77 195.51 685.54 195.5 674.3C191.17 674.07 186.83 673.84 182.5 673.61C182.27 697.57 182.05 721.54 181.82 745.5C183.21 745.61 184.61 745.72 186 745.82ZM481.19 688.09C481.2 685.73 481.21 683.36 481.22 681C481.04 680.17 480.86 679.33 480.69 678.5C476.63 678.52 472.56 678.55 468.5 678.57C468.17 682.77 467.83 686.96 467.5 691.16C464.83 691.28 462.17 691.4 459.5 691.52C459.36 694.85 459.22 698.17 459.09 701.5C461.89 701.66 464.7 701.82 467.5 701.98C469.62 717.06 461.2 742.58 482.47 746.25C484.99 746.68 487.47 746.83 490.01 746.49C493.4 746.04 496.57 745.25 499.5 743.51C499.95 740.13 497.96 736.94 496.5 733.89C492.61 735.22 487.25 737.02 483.7 733.84C481.22 731.61 481.43 727.53 481.38 724.5C481.25 717.14 481.03 709.68 481.5 702.33C486.29 702.05 491.09 701.78 495.88 701.5C495.75 698.22 495.63 694.93 495.5 691.65C491.17 691.55 486.83 691.45 482.5 691.35C482.06 690.26 481.63 689.18 481.19 688.09ZM757.85 689C757.44 689.96 757.03 690.92 756.62 691.88C753.91 691.94 751.21 692 748.5 692.06C748.5 695.28 748.5 698.49 748.5 701.71C749.64 701.75 750.77 701.8 751.91 701.84C753.75 702.06 755.58 702.28 757.42 702.5C757.56 703.01 757.69 703.51 757.82 704.02C757.34 709.8 757.65 715.69 757.7 721.5C757.82 733.72 757.92 744.03 772.5 746.19C774.92 746.55 777.2 746.65 779.64 746.37C783.24 745.95 786.11 745.38 789.23 743.5C788.32 740.39 787.41 737.28 786.5 734.17C783 734.56 779.5 734.96 776 735.36C775.64 735.29 775.29 735.22 774.93 735.15C771.26 732.37 771.09 729.4 770.8 725C770.81 719 770.81 713 770.82 707C770.84 705.67 770.86 704.33 770.88 703C771.25 702.63 771.63 702.26 772 701.89C773.67 701.87 775.33 701.85 777 701.83C779.33 701.81 781.67 701.8 784 701.78C784.62 701.69 785.24 701.59 785.85 701.5C785.74 698.19 785.62 694.88 785.5 691.57C780.79 691.67 776.09 691.77 771.38 691.87C771.2 690.58 771.01 689.29 770.83 688C770.76 684.83 770.69 681.67 770.61 678.5C766.51 678.1 761.17 677.74 757.5 679.34C757.62 682.56 757.73 685.78 757.85 689ZM230.09 695.01C228.9 695.62 227.7 696.22 226.5 696.83C226.34 696.55 226.19 696.27 226.03 695.99C226.07 694.49 226.11 693 226.16 691.5C221.94 691.5 217.72 691.5 213.51 691.5C213.51 709.59 213.5 727.67 213.5 745.76C217.83 745.79 222.17 745.82 226.5 745.85C226.6 744.57 226.69 743.28 226.79 742C226.8 734.67 226.81 727.33 226.82 720C227.13 717.33 227.45 714.67 227.76 712C227.8 711.69 227.85 711.37 227.89 711.06C229.59 708.7 231.29 706.35 232.99 704C233.99 703.57 235 703.14 236 702.71C237.33 702.41 238.67 702.12 240 701.82C241.34 701.84 242.69 701.85 244.03 701.87C245.63 702.27 247.24 702.67 248.84 703.07C249.2 703.38 249.56 703.69 249.92 704C250.62 704.67 251.32 705.33 252.01 706C252.76 708 253.51 710 254.26 712C254.43 723.17 254.59 734.33 254.76 745.5C259.2 745.5 263.65 745.5 268.09 745.5C268.01 743 267.93 740.5 267.86 738C267.85 736.67 267.85 735.33 267.84 734C267.85 729.33 267.85 724.67 267.86 720C267.79 716.33 267.72 712.67 267.66 709C266.54 704.55 265.92 699.81 262.01 696.99C259.04 692.17 252.33 690.74 247 690.26C246 690.26 245 690.27 244 690.27C239.02 690.61 233.92 691.63 230.09 695.01ZM397.5 722.13C398.04 715.01 397.03 706.8 392.52 700.98C379.01 683.55 349.55 687.74 341.79 708.38C340.1 712.9 339.92 717.97 340.6 722.7C341.28 727.4 342.65 732.04 345.66 735.82C356.65 749.63 382.37 750.81 394.01 737.5C391.51 734.99 389 732.49 386.5 729.98C383.84 731.76 381.35 733.78 378.17 734.59C367.92 737.18 355.56 733.7 354 722.13C368.5 722.13 383 722.13 397.5 722.13ZM451.89 695.5C448.72 692.49 443.76 691.62 439.5 690.93C428.17 689.1 408.67 690.12 406.44 704.8C404.33 718.67 416.92 721.88 427.71 723.64C432.74 724.45 438.37 724.24 440.68 729.5C437.93 741.87 416.89 733.32 409.5 730.59C407.92 733.56 406.34 736.53 404.76 739.5C412.29 747.24 431.66 748.02 441.44 744.86C446.87 743.1 452.51 739.33 453.7 733.34C456.49 719.19 445.05 714.75 433.5 713.05C428.4 712.29 422.07 712.64 419.5 707.44C420.43 697.94 434.98 700.14 441.31 702.26C443.41 702.97 445.34 704.31 447.5 704.44C448.96 701.46 450.43 698.48 451.89 695.5ZM510.2 693C510.23 697.67 510.25 702.33 510.28 707C510.28 707.33 510.28 707.67 510.28 708C510.26 720 510.24 732 510.21 744C510.43 744.69 509.96 745.24 510.77 745.74C512.58 746.85 521.13 745.93 523.5 745.75C525.16 733.14 517.31 701.97 537.5 701.96C553.71 701.95 549.66 725.87 549.65 736.5C549.65 739.51 549.64 742.5 549.76 745.5C554.22 745.5 558.68 745.5 563.13 745.5C563.19 742.5 563.15 739.5 563.17 736.5C563.22 725.01 559.48 701.02 577.5 701.87C583.94 702.17 587.67 706.55 588.63 712.71C590.27 723.27 588.81 734.83 588.95 745.5C593.47 745.5 597.98 745.5 602.5 745.5C602.7 738.83 602.46 732.17 602.42 725.5C602.34 708.71 602.28 690.88 580.5 690.21C577.1 690.1 573.57 690.67 570.37 691.82C566.09 693.35 562.87 696.05 559.5 698.97C548.85 687.52 535.68 687.89 523.5 696.81C523.17 694.87 522.83 692.93 522.5 691C520.23 691.04 512.37 690.32 510.76 691.27C509.93 691.76 510.42 692.31 510.2 693ZM671.5 722.14C672.48 713.02 669.84 703.02 662.7 696.83C647.94 684.03 621.57 689.85 615.45 708.9C607.89 732.43 627.98 749.84 650.55 746.27C656.96 745.26 664.05 742.92 668.02 737.5C665.51 734.97 663.01 732.44 660.5 729.91C650.16 737.81 630.26 737.91 627.88 722.14C642.42 722.14 656.96 722.14 671.5 722.14ZM699.89 695.78C699.09 696.17 698.3 696.56 697.5 696.95C697.29 696.24 697.07 695.52 696.86 694.8C696.74 693.56 696.62 692.33 696.5 691.09C692.5 691.07 688.5 691.06 684.5 691.05C684.31 709.2 684.12 727.35 683.93 745.5C688.45 745.5 692.98 745.51 697.5 745.51C697.51 732.05 692.12 703.91 711.5 702.08C713.73 701.87 715.85 702.13 718 702.67C722.52 704.96 724.24 708.17 725.27 713C725.45 714.65 725.63 716.3 725.81 717.94C725.8 722.63 725.79 727.31 725.77 732C725.73 736.5 725.69 741 725.64 745.5C726.76 745.6 727.88 745.7 729 745.8C730 745.8 731 745.81 732 745.81C734.4 745.71 736.8 745.6 739.2 745.5C739.13 743.33 739.06 741.17 738.99 739C738.98 738.67 738.98 738.33 738.97 738C739.74 728.52 740.84 714.02 737.85 705.05C737.78 704.7 737.72 704.35 737.65 704C736.8 702.63 735.95 701.27 735.09 699.9C730.78 688.23 707.63 687.86 699.89 695.78ZM842.12 695.5C838.88 692.44 833.92 691.47 829.52 690.79C817.97 689.01 798.05 690.4 796.16 705.52C794.37 719.93 807.59 722.09 818.54 723.74C823.23 724.44 828.58 724.84 830.82 729.5C827.48 741.94 807.1 733.74 799.5 730.18C797.93 733.62 796.35 737.06 794.78 740.5C804.62 746.78 819.46 748.48 830.52 745.04C836.35 743.22 842.3 739.7 843.66 733.27C844.11 731.1 844.25 728.71 843.95 726.5C841.7 709.66 817.75 717.4 809.93 708.5C809.87 695.05 830.17 702.19 837.5 704.59C839.04 701.56 840.58 698.53 842.12 695.5ZM289.5 691.19C284.78 691.19 280.06 691.19 275.34 691.19C283.39 709.45 291.45 727.71 299.5 745.97C303.83 745.97 308.17 745.97 312.5 745.97C320.54 727.7 328.58 709.43 336.62 691.16C332.24 691.16 327.87 691.16 323.5 691.16C318.6 698.1 314.85 710.63 311.29 718.78C309.7 722.43 308.37 727.35 305.5 729.85C300.17 716.96 294.83 704.07 289.5 691.19ZM384.5 713.43C377.5 713.7 370.5 713.51 363.5 713.47C360.07 713.45 356.54 714.04 353.63 712.5C355.21 707.32 358.24 702.91 363.71 701.27C372.38 698.67 384.69 703.14 384.5 713.43ZM658.5 713.55C648.17 713.55 637.83 713.55 627.5 713.55C629.64 696.21 658.48 696.49 658.5 713.55Z" fill="#ffffff" fill-rule="evenodd" stroke="#ffffff" stroke-width="0.25" stroke-linejoin="round"/>
<path d="M757.34 377C757.06 375.44 756.78 373.89 756.5 372.33C756.02 372.52 755.54 372.7 755.05 372.88C754.37 372.6 754.72 372 753.77 372.35C752.38 372.85 747.04 380.63 745.7 382.25C739.98 389.17 733.78 395.73 728.22 402.74C725.22 406.53 720.43 410.34 719.06 415.01C716.28 416.18 713.85 419.1 712.97 421.95C707.9 424.37 701.74 433.8 697.84 438.38C686.81 451.33 675.58 464.17 664.73 477.27C660.88 481.9 652.5 489.57 650.98 494.97C645.42 497.08 641.76 504.96 637.9 509.46C625.1 524.38 609.11 534.43 588.89 526.55C581.66 523.73 574.57 516.72 569.54 510.97C567.62 508.78 566.44 506.43 563.95 505.03C562.98 502.19 560.71 500.07 558.74 497.75C554.21 492.4 549 483.02 541.89 481.3C540.85 480.57 539.81 479.83 538.77 479.09C534.15 469.98 518.29 478.81 513.62 484.14C500.14 499.52 489.71 517.97 478.29 534.85C473.69 541.65 465.15 550.27 463.06 558.07C458.06 560.79 454.43 567.85 450.65 572.21C447.73 575.59 443.52 578.85 441.99 582.99C438.51 584.46 435.85 587.91 432.76 590.25C428 593.85 422.96 597.27 417.76 600.24C399.02 610.94 373.39 616.51 351.86 615.5C366.74 608.33 382.28 602.07 396.18 592.65C411.94 581.98 429.39 564.53 440.85 549.33C443.89 545.3 446.22 540.73 449.27 536.71C457.42 526.01 463.98 514.22 471.86 503.32C476.88 496.38 481.82 489.25 486.63 482.15C494.38 470.72 502.65 458.48 514.57 451.02C537.72 436.51 554.23 457.91 568.75 472.75C582.85 487.16 600.29 493.05 619.47 485C628.23 481.32 634.41 474.04 641.18 467.71C649.34 460.06 656.07 451.28 663.3 442.76C667.27 438.08 671.62 433.73 675.61 429.09C688.53 414.01 701.51 399.06 714.71 384.22C718.18 380.32 720.96 375.8 724.27 371.75C729.48 365.36 735.34 359.47 740.69 353.2C747.94 344.71 754.84 336.12 762.46 327.98C774.67 314.94 784.98 300.18 797.5 287.39C803.78 293.48 802.87 303.4 802.91 311.5C802.99 329.54 802.21 347.44 801.81 365.5C801.64 373.5 802.44 383.46 797.78 390.34C791.79 399.19 778.7 402.14 769.72 395.92C763.72 391.76 760.29 384.41 758.91 377.5C758.1 376.36 758.78 376.09 757.34 377ZM343 333.83C344 334.45 345.01 335.07 346.01 335.69C354.03 338.35 361.91 340.98 369.26 345.25C374.28 348.16 378.6 352.45 383.67 355.1C388.73 360.98 393.8 366.86 398.86 372.74C401.48 378.13 404.11 383.53 406.73 388.92C407.18 390.28 407.64 391.64 408.1 393C408.29 393.65 408.49 394.3 408.69 394.95C409.04 396.34 409.4 397.73 409.75 399.12C410.61 406.41 411.47 413.71 412.32 421C411.83 428.66 411.34 436.16 408.94 443.51C407.11 449.12 403.7 454.4 402.19 460C402.23 460.5 402.26 461 402.3 461.5C401.45 462.17 400.59 462.83 399.74 463.5C400.55 463.9 401.37 464.3 402.19 464.69C400.49 465.52 400.57 464.96 401.5 466.11C408.99 467.65 416 471.99 422.25 476.28C424.32 477.71 425.66 479.3 428.01 479.99C429.24 481.83 430.47 483.66 431.7 485.5C429.53 489.89 426.15 493.79 423.36 497.83C419.92 502.79 416.95 508.03 413.41 512.95C410.51 516.98 407.76 522.12 403.5 524.71C399.33 513.5 396.95 505.13 385.6 498.77C383.08 497.35 378.57 494.84 376.05 495.88C348.92 489.28 317.99 487.82 293.04 502.52C289.17 504.8 285.6 506.86 282.5 510C281.33 510.66 280.16 511.33 278.99 512C278.66 512.17 278.33 512.33 278 512.5C277.94 513.62 277.88 514.74 277.81 515.86C277.38 515.38 276.94 514.9 276.5 514.42C275.38 515.56 274.26 516.7 273.14 517.83C272.77 518.22 272.39 518.61 272.02 519C262.72 530.81 257.24 545.36 257.39 560.5C257.44 565.63 257.62 572.18 260.02 576.72C260.76 581.7 263.36 587.69 266.93 591.28C268.61 593.28 270.29 595.28 271.97 597.29C272.31 597.53 272.64 597.78 272.98 598.02C273.31 598.36 273.64 598.7 273.96 599.03C274.2 599.37 274.45 599.71 274.69 600.05C278 604.82 283.83 608.11 289 610.63C292.71 612.04 296.42 613.44 300.14 614.84C302.45 615.39 304.76 615.95 307.07 616.5C307.17 616.95 307.27 617.41 307.37 617.86C297.75 618.04 288.12 617.91 278.5 617.85C270.53 617.81 262.54 618.19 254.67 616.71C239.37 613.84 227.73 601.96 223.2 587.36C219.56 575.6 221.14 566.55 220.1 555C220.57 555 221.03 555 221.5 555C221.75 553.85 222 552.7 222.26 551.55C223.87 546.81 225.48 542.07 227.09 537.33C229.32 532.86 231.54 528.39 233.76 523.92C234.55 522.51 235.35 521.1 236.15 519.69C241.56 513.36 245.95 506.33 251.93 500.43C257.28 495.16 264.14 491.35 269.32 486.12C269.63 485.88 269.94 485.65 270.25 485.41C270.83 485.19 271.42 484.98 272 484.77C272.3 484.58 272.6 484.39 272.89 484.21C273.33 483.87 273.77 483.53 274.21 483.19C278.14 481.35 282.07 479.51 286 477.67C287 477.29 288 476.91 289 476.53C302.34 470.94 317.7 469.08 332 467.78C333.34 467.57 334.67 467.35 336.01 467.14C337.34 466.96 338.67 466.78 340 466.6C342.48 466.03 344.96 465.46 347.43 464.89C370.74 459.63 392.85 432.64 384.82 408C384.21 406.35 383.6 404.7 382.99 403.05C382.3 401.33 381.61 399.62 380.91 397.91C380.61 397.6 380.31 397.3 380.01 396.99C379.34 396.02 378.67 395.04 378 394.06C375.76 392.42 374.47 390.1 372.58 387.95C369.55 384.51 365.25 382.21 361.09 380.45C342.32 372.5 308.86 376.19 287.96 375.85C280.84 372.16 270.39 381.86 267.48 387.96C260.21 403.21 265.64 429.21 263.66 446.5C257.58 449.7 244.83 456.92 241.99 462.99C236.9 464.59 226.23 477.79 224.96 482.95C223.11 484.02 223.16 484.48 221.5 483.53C221.07 484.35 220.64 485.18 220.2 486C220.19 465.33 220.18 444.67 220.17 424C220.61 423.94 221.06 423.88 221.5 423.82C221.5 421.14 221.5 418.46 221.5 415.77C221.06 415.85 220.61 415.92 220.17 416C220.17 415 220.17 414 220.17 413C220.61 413.75 221.06 414.51 221.5 415.26C221.5 413.43 221.5 411.6 221.5 409.77C221.06 409.85 220.61 409.92 220.17 410C220.17 409.33 220.16 408.67 220.16 408C220.61 408.41 221.05 408.82 221.5 409.23C221.33 407.65 221.17 406.08 221 404.5C221.18 403.83 221.36 403.17 221.53 402.5C221.08 402.33 220.62 402.17 220.16 402C220.16 399.67 220.17 397.33 220.17 395C220.65 396.17 221.13 397.33 221.6 398.5C221.79 391.24 222.34 384.03 223.5 376.89C224.06 373.46 226.81 366.56 226.08 363.99C226.35 363.61 226.62 363.23 226.89 362.85C231.88 356.88 236.87 350.9 241.86 344.93C242.24 344.62 242.62 344.3 242.99 343.99C243.16 344.22 243.33 344.44 243.5 344.67C246.81 342.95 250.12 341.22 253.43 339.5C253 339.31 252.56 339.13 252.13 338.94C252.76 338.66 253.39 338.39 254.02 338.11C254.18 338.38 254.34 338.66 254.5 338.93C255.98 338.45 257.46 337.98 258.94 337.5C258.96 337.1 258.98 336.7 259 336.29C271.8 332.27 285.25 333.08 298.5 333.06C313.22 333.04 328.36 332.26 343 333.83ZM803.83 337.57C803.79 340.04 803.74 342.52 803.7 345C803.39 344.83 803.07 344.67 802.75 344.5C802.77 342.5 802.79 340.5 802.81 338.5C803.15 338.19 803.49 337.88 803.83 337.57ZM220.28 388C220.59 388.17 220.89 388.33 221.19 388.5C221.14 389.83 221.09 391.17 221.04 392.5C220.75 392.67 220.46 392.83 220.18 393C220.21 391.33 220.25 389.67 220.28 388ZM378 396.69C378.28 396.74 378.56 396.79 378.83 396.83C378.59 396.89 378.34 396.94 378.1 397C378.07 396.9 378.03 396.79 378 396.69ZM725.1 607.15C722.2 607.95 720.05 610.97 717.21 612.63C711.08 616.23 702.62 616.56 695.93 614.49C679.58 609.43 679.02 594.8 678.97 580.5C678.86 550.52 678.6 520.47 679.08 490.5C679.16 485.54 682 483.1 684.99 479.45C686.4 477.72 688.66 475.7 687.97 473.82C702.48 456.81 716.99 439.8 731.5 422.78C732.32 436.55 731.63 450.67 731.63 464.5C731.64 496.17 731.67 527.83 731.66 559.5C731.65 571.55 734.77 598.86 725.1 607.15ZM677.19 520C677.46 520.17 677.73 520.33 677.99 520.5C677.97 523.17 677.94 525.83 677.91 528.5C677.67 528.67 677.43 528.83 677.19 529C677.19 526 677.19 523 677.19 520ZM607 530.67C604.67 530.69 602.33 530.71 600 530.73C600.17 530.49 600.33 530.24 600.5 530C602.5 529.95 604.5 529.91 606.5 529.86C606.67 530.13 606.83 530.4 607 530.67ZM677.19 532C677.46 532.17 677.72 532.33 677.99 532.5C677.98 534.83 677.97 537.17 677.95 539.5C677.7 539.67 677.45 539.83 677.21 540C677.2 537.33 677.19 534.67 677.19 532ZM677.19 546C677.43 546.17 677.66 546.33 677.89 546.5C677.91 550.83 677.94 555.17 677.96 559.5C677.7 559.67 677.45 559.83 677.19 560C677.19 555.33 677.19 550.67 677.19 546ZM677.19 566C677.43 566.17 677.66 566.33 677.9 566.5C677.91 568.83 677.92 571.17 677.93 573.5C677.68 573.67 677.44 573.83 677.19 574C677.19 571.33 677.19 568.67 677.19 566ZM353 617.73C350.33 617.75 347.67 617.77 345 617.79C345.17 617.54 345.33 617.29 345.5 617.04C347.83 617 350.17 616.95 352.5 616.9C352.67 617.18 352.83 617.45 353 617.73ZM188 745.83C187.33 745.83 186.67 745.82 186 745.82C187.06 743.87 185.25 744.23 183.42 743.5C183.44 720.83 183.47 698.17 183.49 675.5C186.92 675.5 190.34 675.5 193.77 675.5C193.84 698.17 193.92 720.83 193.99 743.5C191.8 744.15 189.44 744.02 188 745.83ZM770.83 688C771.01 689.29 771.2 690.58 771.38 691.87C775.22 692.41 779.07 692.96 782.91 693.5C784.59 696.03 785.69 697.63 783.5 700C783.67 700.59 783.83 701.19 784 701.78C781.67 701.8 779.33 701.81 777 701.83C776.83 701.55 776.67 701.28 776.5 701C775.17 701 773.83 701 772.5 701C772.33 701.3 772.17 701.59 772 701.89C771.63 702.26 771.25 702.63 770.88 703C770.42 702.9 769.96 702.8 769.5 702.71C769.5 705.21 769.5 707.72 769.5 710.23C769.94 709.15 770.38 708.08 770.82 707C770.81 713 770.81 719 770.8 725C770.37 722.8 769.93 720.61 769.5 718.41C768.68 725.05 768.45 730.56 773.3 735.5C773.84 735.38 774.39 735.27 774.93 735.15C775.29 735.22 775.64 735.29 776 735.36C777.76 737.99 781.77 736.47 784.64 736.5C786.33 738.64 786.64 739.77 786.76 742.5C783.89 744.25 780.86 744.98 777.5 745.11C769.59 745.41 761.28 741.61 759.17 733.22C758.12 729.06 758.96 723.78 759.01 719.5C759.08 714.16 758.92 708.84 758.92 703.5C758.17 702.39 758.57 702.48 757.82 704.02C757.69 703.51 757.56 703.01 757.42 702.5C755.58 702.28 753.75 702.06 751.91 701.84C752.06 701.39 752.21 700.95 752.36 700.5C749.7 698.39 750.1 696.69 750.5 693.37C752.5 693.11 754.5 692.84 756.5 692.58C756.54 692.34 756.58 692.11 756.62 691.88C757.03 690.92 757.44 689.96 757.85 689C758.11 689.5 758.38 690 758.64 690.5C758.93 687.07 759.21 683.64 759.5 680.21C762.5 680.3 765.5 680.39 768.5 680.49C769.28 682.99 770.06 685.5 770.83 688ZM481.22 681C481.21 683.36 481.2 685.73 481.19 688.09C481.2 685.73 481.21 683.36 481.22 681ZM244 690.27C245 690.27 246 690.26 247 690.26C246.83 690.68 246.67 691.1 246.5 691.52C252.2 692.66 256.85 694.47 262.01 696.99C263.65 701.4 265.87 704.55 266.5 709.48C266.89 709.32 267.27 709.16 267.66 709C267.72 712.67 267.79 716.33 267.86 720C267.57 720.17 267.29 720.33 267 720.5C267 724.83 267 729.17 267 733.5C267.28 733.67 267.56 733.83 267.84 734C267.85 735.33 267.85 736.67 267.86 738C267.49 739.83 267.11 741.67 266.74 743.5C263.5 745.34 260.21 745.24 256.5 744.83C254.77 737.02 256.05 728.51 255.86 720.5C255.79 717.63 256.62 713.78 254.26 712C253.51 710 252.76 708 252.01 706C252.29 705.83 252.56 705.67 252.84 705.5C252.06 704.7 251.28 703.9 250.5 703.1C250.31 703.4 250.12 703.7 249.92 704C249.56 703.69 249.2 703.38 248.84 703.07C247.76 700.95 246.94 701.27 244.5 701.13C244.34 701.37 244.19 701.62 244.03 701.87C242.69 701.85 241.34 701.84 240 701.82C239.83 701.55 239.67 701.27 239.5 701C238.44 701.17 237.38 701.33 236.33 701.5C236.22 701.9 236.11 702.31 236 702.71C235 703.14 233.99 703.57 232.99 704C232.83 703.79 232.66 703.59 232.5 703.39C230.65 705.76 228.79 708.13 226.94 710.5C227.25 710.69 227.57 710.87 227.89 711.06C227.85 711.37 227.8 711.69 227.76 712C227.34 711.85 226.92 711.7 226.5 711.55C226.17 715.32 225.83 719.09 225.5 722.86C225.94 721.9 226.38 720.95 226.82 720C226.81 727.33 226.8 734.67 226.79 742C226.36 739.33 225.93 736.66 225.5 733.99C225.17 737.27 224.83 740.56 224.5 743.84C221.31 745.03 218.77 745.5 215.5 744.34C215.5 727 215.5 709.67 215.5 692.34C218.51 692.39 221.51 692.45 224.52 692.5C225.02 693.66 225.53 694.83 226.03 695.99C226.19 696.27 226.34 696.55 226.5 696.83C227.7 696.22 228.9 695.62 230.09 695.01C230.23 695.22 230.36 695.44 230.5 695.65C234.41 693.46 238.02 691.87 242.5 692C243 691.42 243.5 690.85 244 690.27ZM735.09 699.9C735.56 701.32 736.03 702.75 736.5 704.17C736.88 704.12 737.27 704.06 737.65 704C737.72 704.35 737.78 704.7 737.85 705.05C736.63 707.44 737.74 709.79 737.81 712.5C737.97 718.54 737.82 724.51 738.1 730.5C738.23 733.3 737.57 735.72 738.97 738C738.98 738.33 738.98 738.67 738.99 739C738.66 739.17 738.33 739.33 738 739.5C738.02 740.83 738.05 742.17 738.07 743.5C737.21 744.1 736.36 744.7 735.5 745.31C734.5 745.2 733.5 745.1 732.5 745C732.33 745.27 732.17 745.54 732 745.81C731 745.81 730 745.8 729 745.8C728.55 745.05 727.53 744.11 727.25 743.35C725.75 739.32 727.25 727.45 727.2 722.5C727.17 719.57 727.88 714.41 725.27 713C724.24 708.17 722.52 704.96 718 702.67C716.86 700.55 713.95 701 711.5 701.07C706.52 701.23 699.9 704.38 697.78 709.2C693.52 718.87 698.23 733.84 695.5 744.3C692.5 744.16 689.5 744.01 686.5 743.87C684.97 739.56 685.9 735.17 685.51 730.63C684.46 718.57 685.33 706.55 684.55 694.5C687.28 692.78 691.11 691.64 694.28 693.16C695.45 693.73 695.5 694.41 696.86 694.8C697.07 695.52 697.29 696.24 697.5 696.95C698.3 696.56 699.09 696.17 699.89 695.78C703.93 695.39 707.47 692.56 711.69 691.93C717.41 691.08 725.36 692.3 730.11 695.63C731.95 696.92 733.25 698.74 735.09 699.9ZM510.2 693C510.41 693.17 510.62 693.33 510.83 693.5C510.97 697.83 511.11 702.17 511.25 706.5C510.93 706.67 510.6 706.83 510.28 707C510.25 702.33 510.23 697.67 510.2 693ZM195.54 708C195.56 712.67 195.57 717.33 195.59 722C195.29 721.83 194.99 721.67 194.69 721.5C194.66 717.17 194.63 712.83 194.6 708.5C194.91 708.33 195.23 708.17 195.54 708ZM510.28 708C511.94 710.64 511.34 714.3 511.24 717.5C511.01 724.35 513.1 738.38 510.21 744C510.24 732 510.26 720 510.28 708ZM725.81 717.94C725.8 722.63 725.79 727.31 725.77 732C725.79 727.31 725.8 722.63 725.81 717.94ZM195.58 724C195.57 728.33 195.56 732.67 195.55 737C195.22 736.83 194.89 736.67 194.56 736.5C194.59 732.5 194.62 728.5 194.65 724.5C194.96 724.33 195.27 724.17 195.58 724Z" fill="#264b95" fill-rule="evenodd" stroke="#264b95" stroke-width="0.25" stroke-linejoin="round"/>
<path d="M797.11 284.06C808.09 292.5 804.45 312.3 804.12 324.5C804 328.85 804.18 333.24 803.83 337.57C803.49 337.88 803.15 338.19 802.81 338.5C802.79 340.5 802.77 342.5 802.75 344.5C803.07 344.67 803.39 344.83 803.7 345C803.82 354.15 803.37 363.35 803.1 372.5C802.93 378.79 802.88 385.31 799.26 390.74C792 401.64 777.15 403.83 767.09 395.44C761.33 390.65 758.91 384.07 757.34 377C758.78 376.09 758.1 376.36 758.91 377.5C760.29 384.41 763.72 391.76 769.72 395.92C778.7 402.14 791.79 399.19 797.78 390.34C802.44 383.46 801.64 373.5 801.81 365.5C802.21 347.44 802.99 329.54 802.91 311.5C802.87 303.4 803.78 293.48 797.5 287.39C784.98 300.18 774.67 314.94 762.46 327.98C754.84 336.12 747.94 344.71 740.69 353.2C735.34 359.47 729.48 365.36 724.27 371.75C720.96 375.8 718.18 380.32 714.71 384.22C701.51 399.06 688.53 414.01 675.61 429.09C671.62 433.73 667.27 438.08 663.3 442.76C656.07 451.28 649.34 460.06 641.18 467.71C634.41 474.04 628.23 481.32 619.47 485C600.29 493.05 582.85 487.16 568.75 472.75C554.23 457.91 537.72 436.51 514.57 451.02C502.65 458.48 494.38 470.72 486.63 482.15C481.82 489.25 476.88 496.38 471.86 503.32C463.98 514.22 457.42 526.01 449.27 536.71C446.22 540.73 443.89 545.3 440.85 549.33C429.39 564.53 411.94 581.98 396.18 592.65C382.28 602.07 366.74 608.33 351.86 615.5C373.39 616.51 399.02 610.94 417.76 600.24C422.96 597.27 428 593.85 432.76 590.25C435.85 587.91 438.51 584.46 441.99 582.99C438.99 588.92 428.05 596.17 422.22 599.7C401.72 612.12 376.76 617.34 353 617.73C352.83 617.45 352.67 617.18 352.5 616.9C350.17 616.95 347.83 617 345.5 617.04C345.33 617.29 345.17 617.54 345 617.79C339.66 617.8 334.33 617.81 328.99 617.83C330.21 617.28 331.42 616.73 332.63 616.18C344.6 614.54 365.15 609.14 375.1 602.32C375.77 602.02 376.44 601.73 377.11 601.44C380.16 599.63 383.22 597.83 386.27 596.02C390.78 593.07 395.29 590.11 399.8 587.16C400.87 586.35 401.93 585.55 403 584.74C428 566.07 444.66 539.94 462.02 514.6C467.45 506.67 472.54 498.5 477.98 490.58C481.62 485.28 486.29 480.11 489.07 474.35C491.5 471.26 493.92 468.16 496.34 465.07C498.17 463.05 500 461.02 501.83 459C501.96 458.81 502.08 458.62 502.2 458.43C503.6 457.01 505 455.58 506.39 454.16C507.73 453.12 509.07 452.09 510.41 451.05C511.98 450.04 513.55 449.02 515.13 448.01C515.7 447.75 516.28 447.49 516.85 447.22C517.9 446.78 518.95 446.34 520 445.9C524.12 444.8 528.2 443.79 532.51 444.15C560.07 446.45 569.47 483.87 598.19 486C598.46 486.17 598.73 486.33 599 486.5C604.04 486.86 609.08 486.54 613.83 484.74C614.31 484.51 614.78 484.29 615.25 484.06C617.2 483.08 619.16 482.1 621.12 481.12C622.83 480.13 624.55 479.15 626.27 478.17C628.27 476.56 630.27 474.95 632.26 473.35C636.86 468.66 641.45 463.96 646.04 459.27C646.76 458.5 647.47 457.73 648.19 456.95C649.49 455.42 650.79 453.88 652.09 452.34C652.8 451.56 653.52 450.78 654.23 449.99C660.2 443.04 666.16 436.08 672.13 429.13C678.64 421.84 685.15 414.55 691.67 407.26C692.21 406.52 692.74 405.78 693.28 405.05C700.6 396.36 707.92 387.67 715.24 378.98C716.46 377.65 717.69 376.33 718.91 375C719.28 374.62 719.64 374.24 720 373.86C722.04 371.26 724.07 368.67 726.11 366.08C736.02 354.72 745.93 343.36 755.84 332C756.27 331.45 756.7 330.9 757.12 330.36C758.56 328.74 759.99 327.13 761.42 325.51C762.32 324.51 763.21 323.5 764.11 322.49C774.08 310.76 784.05 299.04 794.03 287.31C795.05 286.23 796.08 285.14 797.11 284.06ZM259 336.29C258.98 336.7 258.96 337.1 258.94 337.5C257.46 337.98 255.98 338.45 254.5 338.93C254.34 338.66 254.18 338.38 254.02 338.11C255.68 337.5 257.34 336.9 259 336.29ZM252.13 338.94C252.56 339.13 253 339.31 253.43 339.5C250.12 341.22 246.81 342.95 243.5 344.67C243.33 344.44 243.16 344.22 242.99 343.99C246.04 342.31 249.09 340.62 252.13 338.94ZM241.86 344.93C236.87 350.9 231.88 356.88 226.89 362.85C228.75 356.45 235.59 347.5 241.86 344.93ZM226.08 363.99C226.81 366.56 224.06 373.46 223.5 376.89C222.34 384.03 221.79 391.24 221.6 398.5C221.13 397.33 220.65 396.17 220.17 395C220.17 394.33 220.17 393.67 220.18 393C220.46 392.83 220.75 392.67 221.04 392.5C221.09 391.17 221.14 389.83 221.19 388.5C220.89 388.33 220.59 388.17 220.28 388C220.98 379.91 222.12 371.21 226.08 363.99ZM755.05 372.88C743.06 386.92 731.06 400.97 719.06 415.01C720.43 410.34 725.22 406.53 728.22 402.74C733.78 395.73 739.98 389.17 745.7 382.25C747.04 380.63 752.38 372.85 753.77 372.35C754.72 372 754.37 372.6 755.05 372.88ZM287.96 375.85C284.87 376.43 281.84 377.1 279.02 378.53C268.68 383.78 265.73 394.77 265.66 405.5C265.6 415.16 265.65 424.83 265.66 434.5C265.67 438.81 266.19 443.3 265.29 447.5C257.52 452.66 249.75 457.82 241.99 462.99C244.83 456.92 257.58 449.7 263.66 446.5C265.64 429.21 260.21 403.21 267.48 387.96C270.39 381.86 280.84 372.16 287.96 375.85ZM220.16 402C220.62 402.17 221.08 402.33 221.53 402.5C221.36 403.17 221.18 403.83 221 404.5C221.17 406.08 221.33 407.65 221.5 409.23C221.05 408.82 220.61 408.41 220.16 408C220.16 406 220.16 404 220.16 402ZM220.17 410C220.61 409.92 221.06 409.85 221.5 409.77C221.5 411.6 221.5 413.43 221.5 415.26C221.06 414.51 220.61 413.75 220.17 413C220.17 412 220.17 411 220.17 410ZM719.06 415.01C717.03 417.33 715 419.64 712.97 421.95C713.85 419.1 716.28 416.18 719.06 415.01ZM220.17 416C220.61 415.92 221.06 415.85 221.5 415.77C221.5 418.46 221.5 421.14 221.5 423.82C221.06 423.88 220.61 423.94 220.17 424C220.17 421.33 220.17 418.67 220.17 416ZM712.97 421.95C710.93 427.49 701.3 436.61 697.12 441.65C686.7 454.19 676.02 466.51 665.45 478.93C661.46 483.6 655.99 492.02 650.98 494.97C652.5 489.57 660.88 481.9 664.73 477.27C675.58 464.17 686.81 451.33 697.84 438.38C701.74 433.8 707.9 424.37 712.97 421.95ZM241.99 462.99C236.31 469.64 230.64 476.3 224.96 482.95C226.23 477.79 236.9 464.59 241.99 462.99ZM402.19 464.69C409.18 466.17 424.65 473.69 428.01 479.99C425.66 479.3 424.32 477.71 422.25 476.28C416 471.99 408.99 467.65 401.5 466.11C400.57 464.96 400.49 465.52 402.19 464.69ZM687.97 473.82C688.66 475.7 686.4 477.72 684.99 479.45C682 483.1 679.16 485.54 679.08 490.5C678.6 520.47 678.86 550.52 678.97 580.5C679.02 594.8 679.58 609.43 695.93 614.49C702.62 616.56 711.08 616.23 717.21 612.63C720.05 610.97 722.2 607.95 725.1 607.15C723.77 610.15 721.09 612.08 718.25 613.73C707.41 620.07 693.08 618.41 684.59 608.89C675.82 599.05 676.54 586.39 677.19 574C677.44 573.83 677.68 573.67 677.93 573.5C677.92 571.17 677.91 568.83 677.9 566.5C677.66 566.33 677.43 566.17 677.19 566C677.19 564 677.19 562 677.19 560C677.45 559.83 677.7 559.67 677.96 559.5C677.94 555.17 677.91 550.83 677.89 546.5C677.66 546.33 677.43 546.17 677.19 546C677.2 544 677.2 542 677.21 540C677.45 539.83 677.7 539.67 677.95 539.5C677.97 537.17 677.98 534.83 677.99 532.5C677.72 532.33 677.46 532.17 677.19 532C677.19 531 677.19 530 677.19 529C677.43 528.83 677.67 528.67 677.91 528.5C677.94 525.83 677.97 523.17 677.99 520.5C677.73 520.33 677.46 520.17 677.19 520C676.77 512.54 677.04 504.98 677.07 497.5C677.08 494.19 676.36 489.88 677.24 486.69C678.07 483.7 685.5 475.98 687.97 473.82ZM538.77 479.09C535.3 478.02 532.28 476.75 528.5 477.14C517.64 478.26 510.42 490.26 504.87 498.33C495.21 512.37 485.67 526.5 476.03 540.55C472.71 545.39 467.68 555.14 463.06 558.07C465.15 550.27 473.69 541.65 478.29 534.85C489.71 517.97 500.14 499.52 513.62 484.14C518.29 478.81 534.15 469.98 538.77 479.09ZM428.01 479.99C429.96 481.83 431.91 483.66 433.86 485.5C423.4 500.33 412.95 515.17 402.5 530C401.3 526.08 401.24 521.69 399.76 517.69C395.44 505.99 386.53 501.15 376.05 495.88C378.57 494.84 383.08 497.35 385.6 498.77C396.95 505.13 399.33 513.5 403.5 524.71C407.76 522.12 410.51 516.98 413.41 512.95C416.95 508.03 419.92 502.79 423.36 497.83C426.15 493.79 429.53 489.89 431.7 485.5C430.47 483.66 429.24 481.83 428.01 479.99ZM541.89 481.3C549 483.02 554.21 492.4 558.74 497.75C560.71 500.07 562.98 502.19 563.95 505.03C556.6 497.12 549.24 489.21 541.89 481.3ZM224.96 482.95C223.48 485.55 221.99 488.14 220.5 490.73C220.4 489.15 220.3 487.58 220.2 486C220.64 485.18 221.07 484.35 221.5 483.53C223.16 484.48 223.11 484.02 224.96 482.95ZM650.98 494.97C649.55 499.18 644.98 503.08 642.09 506.62C632.42 518.46 622.22 527.4 607 530.67C606.83 530.4 606.67 530.13 606.5 529.86C604.5 529.91 602.5 529.95 600.5 530C600.33 530.24 600.17 530.49 600 530.73C586.69 528.93 575.95 521.17 567.79 510.72C566.3 508.8 564.76 507.24 563.95 505.03C566.44 506.43 567.62 508.78 569.54 510.97C574.57 516.72 581.66 523.73 588.89 526.55C609.11 534.43 625.1 524.38 637.9 509.46C641.76 504.96 645.42 497.08 650.98 494.97ZM463.06 558.07C462.04 561.05 459.6 563.57 457.63 566.16C453.48 571.62 448.21 580.07 441.99 582.99C443.52 578.85 447.73 575.59 450.65 572.21C454.43 567.85 458.06 560.79 463.06 558.07ZM195.54 708C195.23 708.17 194.91 708.33 194.6 708.5C194.63 712.83 194.66 717.17 194.69 721.5C194.99 721.67 195.29 721.83 195.59 722C195.59 722.67 195.58 723.33 195.58 724C195.27 724.17 194.96 724.33 194.65 724.5C194.62 728.5 194.59 732.5 194.56 736.5C194.89 736.67 195.22 736.83 195.55 737C195.53 739.84 195.52 742.68 195.5 745.52C193 745.62 190.5 745.72 188 745.83C189.44 744.02 191.8 744.15 193.99 743.5C193.92 720.83 193.84 698.17 193.77 675.5C190.34 675.5 186.92 675.5 183.49 675.5C183.47 698.17 183.44 720.83 183.42 743.5C185.25 744.23 187.06 743.87 186 745.82C184.61 745.72 183.21 745.61 181.82 745.5C182.05 721.54 182.27 697.57 182.5 673.61C186.83 673.84 191.17 674.07 195.5 674.3C195.51 685.54 195.53 696.77 195.54 708ZM481.22 681C481.21 683.36 481.2 685.73 481.19 688.09C481.63 689.18 482.06 690.26 482.5 691.35C486.83 691.45 491.17 691.55 495.5 691.65C495.63 694.93 495.75 698.22 495.88 701.5C491.09 701.78 486.29 702.05 481.5 702.33C481.03 709.68 481.25 717.14 481.38 724.5C481.43 727.53 481.22 731.61 483.7 733.84C487.25 737.02 492.61 735.22 496.5 733.89C497.96 736.94 499.95 740.13 499.5 743.51C496.57 745.25 493.4 746.04 490.01 746.49C487.47 746.83 484.99 746.68 482.47 746.25C461.2 742.58 469.62 717.06 467.5 701.98C464.7 701.82 461.89 701.66 459.09 701.5C459.22 698.17 459.36 694.85 459.5 691.52C462.17 691.4 464.83 691.28 467.5 691.16C467.83 686.96 468.17 682.77 468.5 678.57C472.56 678.55 476.63 678.52 480.69 678.5C480.86 679.33 481.04 680.17 481.22 681ZM770.83 688C770.06 685.5 769.28 682.99 768.5 680.49C765.5 680.39 762.5 680.3 759.5 680.21C759.21 683.64 758.93 687.07 758.64 690.5C758.38 690 758.11 689.5 757.85 689C757.73 685.78 757.62 682.56 757.5 679.34C761.17 677.74 766.51 678.1 770.61 678.5C770.69 681.67 770.76 684.83 770.83 688ZM244 690.27C243.5 690.85 243 691.42 242.5 692C238.02 691.87 234.41 693.46 230.5 695.65C230.36 695.44 230.23 695.22 230.09 695.01C233.92 691.63 239.02 690.61 244 690.27ZM247 690.26C252.33 690.74 259.04 692.17 262.01 696.99C256.85 694.47 252.2 692.66 246.5 691.52C246.67 691.1 246.83 690.68 247 690.26ZM397.5 722.13C383 722.13 368.5 722.13 354 722.13C355.56 733.7 367.92 737.18 378.17 734.59C381.35 733.78 383.84 731.76 386.5 729.98C389 732.49 391.51 734.99 394.01 737.5C382.37 750.81 356.65 749.63 345.66 735.82C342.65 732.04 341.28 727.4 340.6 722.7C339.92 717.97 340.1 712.9 341.79 708.38C349.55 687.74 379.01 683.55 392.52 700.98C397.03 706.8 398.04 715.01 397.5 722.13ZM451.89 695.5C450.43 698.48 448.96 701.46 447.5 704.44C445.34 704.31 443.41 702.97 441.31 702.26C434.98 700.14 420.43 697.94 419.5 707.44C422.07 712.64 428.4 712.29 433.5 713.05C445.05 714.75 456.49 719.19 453.7 733.34C452.51 739.33 446.87 743.1 441.44 744.86C431.66 748.02 412.29 747.24 404.76 739.5C406.34 736.53 407.92 733.56 409.5 730.59C416.89 733.32 437.93 741.87 440.68 729.5C438.37 724.24 432.74 724.45 427.71 723.64C416.92 721.88 404.33 718.67 406.44 704.8C408.67 690.12 428.17 689.1 439.5 690.93C443.76 691.62 448.72 692.49 451.89 695.5ZM510.21 744C513.1 738.38 511.01 724.35 511.24 717.5C511.34 714.3 511.94 710.64 510.28 708C510.28 707.67 510.28 707.33 510.28 707C510.6 706.83 510.93 706.67 511.25 706.5C511.11 702.17 510.97 697.83 510.83 693.5C510.62 693.33 510.41 693.17 510.2 693C510.42 692.31 509.93 691.76 510.76 691.27C512.37 690.32 520.23 691.04 522.5 691C522.83 692.93 523.17 694.87 523.5 696.81C535.68 687.89 548.85 687.52 559.5 698.97C562.87 696.05 566.09 693.35 570.37 691.82C573.57 690.67 577.1 690.1 580.5 690.21C602.28 690.88 602.34 708.71 602.42 725.5C602.46 732.17 602.7 738.83 602.5 745.5C597.98 745.5 593.47 745.5 588.95 745.5C588.81 734.83 590.27 723.27 588.63 712.71C587.67 706.55 583.94 702.17 577.5 701.87C559.48 701.02 563.22 725.01 563.17 736.5C563.15 739.5 563.19 742.5 563.13 745.5C558.68 745.5 554.22 745.5 549.76 745.5C549.64 742.5 549.65 739.51 549.65 736.5C549.66 725.87 553.71 701.95 537.5 701.96C517.31 701.97 525.16 733.14 523.5 745.75C521.13 745.93 512.58 746.85 510.77 745.74C509.96 745.24 510.43 744.69 510.21 744ZM671.5 722.14C656.96 722.14 642.42 722.14 627.88 722.14C630.26 737.91 650.16 737.81 660.5 729.91C663.01 732.44 665.51 734.97 668.02 737.5C664.05 742.92 656.96 745.26 650.55 746.27C627.98 749.84 607.89 732.43 615.45 708.9C621.57 689.85 647.94 684.03 662.7 696.83C669.84 703.02 672.48 713.02 671.5 722.14ZM735.09 699.9C733.25 698.74 731.95 696.92 730.11 695.63C725.36 692.3 717.41 691.08 711.69 691.93C707.47 692.56 703.93 695.39 699.89 695.78C707.63 687.86 730.78 688.23 735.09 699.9ZM842.12 695.5C840.58 698.53 839.04 701.56 837.5 704.59C830.17 702.19 809.87 695.05 809.93 708.5C817.75 717.4 841.7 709.66 843.95 726.5C844.25 728.71 844.11 731.1 843.66 733.27C842.3 739.7 836.35 743.22 830.52 745.04C819.46 748.48 804.62 746.78 794.78 740.5C796.35 737.06 797.93 733.62 799.5 730.18C807.1 733.74 827.48 741.94 830.82 729.5C828.58 724.84 823.23 724.44 818.54 723.74C807.59 722.09 794.37 719.93 796.16 705.52C798.05 690.4 817.97 689.01 829.52 690.79C833.92 691.47 838.88 692.44 842.12 695.5ZM226.03 695.99C225.53 694.83 225.02 693.66 224.52 692.5C221.51 692.45 218.51 692.39 215.5 692.34C215.5 709.67 215.5 727 215.5 744.34C218.77 745.5 221.31 745.03 224.5 743.84C224.83 740.56 225.17 737.27 225.5 733.99C225.93 736.66 226.36 739.33 226.79 742C226.69 743.28 226.6 744.57 226.5 745.85C222.17 745.82 217.83 745.79 213.5 745.76C213.5 727.67 213.51 709.59 213.51 691.5C217.72 691.5 221.94 691.5 226.16 691.5C226.11 693 226.07 694.49 226.03 695.99ZM289.5 691.19C294.83 704.07 300.17 716.96 305.5 729.85C308.37 727.35 309.7 722.43 311.29 718.78C314.85 710.63 318.6 698.1 323.5 691.16C327.87 691.16 332.24 691.16 336.62 691.16C328.58 709.43 320.54 727.7 312.5 745.97C308.17 745.97 303.83 745.97 299.5 745.97C291.45 727.71 283.39 709.45 275.34 691.19C280.06 691.19 284.78 691.19 289.5 691.19ZM696.86 694.8C695.5 694.41 695.45 693.73 694.28 693.16C691.11 691.64 687.28 692.78 684.55 694.5C685.33 706.55 684.46 718.57 685.51 730.63C685.9 735.17 684.97 739.56 686.5 743.87C689.5 744.01 692.5 744.16 695.5 744.3C698.23 733.84 693.52 718.87 697.78 709.2C699.9 704.38 706.52 701.23 711.5 701.07C713.95 701 716.86 700.55 718 702.67C715.85 702.13 713.73 701.87 711.5 702.08C692.12 703.91 697.51 732.05 697.5 745.51C692.98 745.51 688.45 745.5 683.93 745.5C684.12 727.35 684.31 709.2 684.5 691.05C688.5 691.06 692.5 691.07 696.5 691.09C696.62 692.33 696.74 693.56 696.86 694.8ZM756.62 691.88C756.58 692.11 756.54 692.34 756.5 692.58C754.5 692.84 752.5 693.11 750.5 693.37C750.1 696.69 749.7 698.39 752.36 700.5C752.21 700.95 752.06 701.39 751.91 701.84C750.77 701.8 749.64 701.75 748.5 701.71C748.5 698.49 748.5 695.28 748.5 692.06C751.21 692 753.91 691.94 756.62 691.88ZM771.38 691.87C776.09 691.77 780.79 691.67 785.5 691.57C785.62 694.88 785.74 698.19 785.85 701.5C785.24 701.59 784.62 701.69 784 701.78C783.83 701.19 783.67 700.59 783.5 700C785.69 697.63 784.59 696.03 782.91 693.5C779.07 692.96 775.22 692.41 771.38 691.87ZM262.01 696.99C265.92 699.81 266.54 704.55 267.66 709C267.27 709.16 266.89 709.32 266.5 709.48C265.87 704.55 263.65 701.4 262.01 696.99ZM384.5 713.43C384.69 703.14 372.38 698.67 363.71 701.27C358.24 702.91 355.21 707.32 353.63 712.5C356.54 714.04 360.07 713.45 363.5 713.47C370.5 713.51 377.5 713.7 384.5 713.43ZM735.09 699.9C735.95 701.27 736.8 702.63 737.65 704C737.27 704.06 736.88 704.12 736.5 704.17C736.03 702.75 735.56 701.32 735.09 699.9ZM240 701.82C238.67 702.12 237.33 702.41 236 702.71C236.11 702.31 236.22 701.9 236.33 701.5C237.38 701.33 238.44 701.17 239.5 701C239.67 701.27 239.83 701.55 240 701.82ZM248.84 703.07C247.24 702.67 245.63 702.27 244.03 701.87C244.19 701.62 244.34 701.37 244.5 701.13C246.94 701.27 247.76 700.95 248.84 703.07ZM658.5 713.55C658.48 696.49 629.64 696.21 627.5 713.55C637.83 713.55 648.17 713.55 658.5 713.55ZM777 701.83C775.33 701.85 773.67 701.87 772 701.89C772.17 701.59 772.33 701.3 772.5 701C773.83 701 775.17 701 776.5 701C776.67 701.28 776.83 701.55 777 701.83ZM776 735.36C779.5 734.96 783 734.56 786.5 734.17C787.41 737.28 788.32 740.39 789.23 743.5C786.11 745.38 783.24 745.95 779.64 746.37C777.2 746.65 774.92 746.55 772.5 746.19C757.92 744.03 757.82 733.72 757.7 721.5C757.65 715.69 757.34 709.8 757.82 704.02C758.57 702.48 758.17 702.39 758.92 703.5C758.92 708.84 759.08 714.16 759.01 719.5C758.96 723.78 758.12 729.06 759.17 733.22C761.28 741.61 769.59 745.41 777.5 745.11C780.86 744.98 783.89 744.25 786.76 742.5C786.64 739.77 786.33 738.64 784.64 736.5C781.77 736.47 777.76 737.99 776 735.36ZM232.99 704C231.29 706.35 229.59 708.7 227.89 711.06C227.57 710.87 227.25 710.69 226.94 710.5C228.79 708.13 230.65 705.76 232.5 703.39C232.66 703.59 232.83 703.79 232.99 704ZM252.01 706C251.32 705.33 250.62 704.67 249.92 704C250.12 703.7 250.31 703.4 250.5 703.1C251.28 703.9 252.06 704.7 252.84 705.5C252.56 705.67 252.29 705.83 252.01 706ZM770.88 703C770.86 704.33 770.84 705.67 770.82 707C770.38 708.08 769.94 709.15 769.5 710.23C769.5 707.72 769.5 705.21 769.5 702.71C769.96 702.8 770.42 702.9 770.88 703ZM737.85 705.05C740.84 714.02 739.74 728.52 738.97 738C737.57 735.72 738.23 733.3 738.1 730.5C737.82 724.51 737.97 718.54 737.81 712.5C737.74 709.79 736.63 707.44 737.85 705.05ZM227.76 712C227.45 714.67 227.13 717.33 226.82 720C226.38 720.95 225.94 721.9 225.5 722.86C225.83 719.09 226.17 715.32 226.5 711.55C226.92 711.7 227.34 711.85 227.76 712ZM254.26 712C256.62 713.78 255.79 717.63 255.86 720.5C256.05 728.51 254.77 737.02 256.5 744.83C260.21 745.24 263.5 745.34 266.74 743.5C267.11 741.67 267.49 739.83 267.86 738C267.93 740.5 268.01 743 268.09 745.5C263.65 745.5 259.2 745.5 254.76 745.5C254.59 734.33 254.43 723.17 254.26 712ZM725.27 713C727.88 714.41 727.17 719.57 727.2 722.5C727.25 727.45 725.75 739.32 727.25 743.35C727.53 744.11 728.55 745.05 729 745.8C727.88 745.7 726.76 745.6 725.64 745.5C725.69 741 725.73 736.5 725.77 732C725.79 727.31 725.8 722.63 725.81 717.94C725.63 716.3 725.45 714.65 725.27 713ZM770.8 725C771.09 729.4 771.26 732.37 774.93 735.15C774.39 735.27 773.84 735.38 773.3 735.5C768.45 730.56 768.68 725.05 769.5 718.41C769.93 720.61 770.37 722.8 770.8 725ZM267.86 720C267.85 724.67 267.85 729.33 267.84 734C267.56 733.83 267.28 733.67 267 733.5C267 729.17 267 724.83 267 720.5C267.29 720.33 267.57 720.17 267.86 720ZM738.99 739C739.06 741.17 739.13 743.33 739.2 745.5C736.8 745.6 734.4 745.71 732 745.81C732.17 745.54 732.33 745.27 732.5 745C733.5 745.1 734.5 745.2 735.5 745.31C736.36 744.7 737.21 744.1 738.07 743.5C738.05 742.17 738.02 740.83 738 739.5C738.33 739.33 738.66 739.17 738.99 739Z" fill="#283c5d" fill-rule="evenodd" stroke="#283c5d" stroke-width="0.25" stroke-linejoin="round"/>
<path d="M779 278.52C785.6 278.1 792.32 279.04 797.11 284.06C796.08 285.14 795.05 286.23 794.03 287.31C792.85 287.54 791.68 287.77 790.5 288C788.92 289.94 784.5 294.07 783.6 296.03C783.13 297.07 783.32 298.05 782.7 299.14C780.6 302.85 775.86 306.34 772.91 309.46C770.53 311.98 768.63 315.26 765.5 316.5C765.03 315.63 763.38 313.54 763.57 312.54C763.65 312.11 764.63 311.95 764.79 311.38C764.94 310.87 764.47 309.98 764.46 309.44C764.38 306.36 764.57 304.71 766.5 302.52C765.08 300.88 766.23 299.67 766.14 297.5C766.13 297.29 765.56 295.64 765.6 295.53C765.84 294.99 767.02 294.74 767.44 294.5C765.45 288.18 769.1 288.19 767.83 284.5C769.49 282.98 771.14 281.46 772.8 279.94C774.55 279.6 776.31 279.26 778.06 278.92C778.38 278.78 778.69 278.65 779 278.52ZM720.83 290C720.72 290.33 720.61 290.67 720.5 291C719.17 291 717.83 291 716.5 291C716.33 290.77 716.17 290.55 716 290.32C717.61 290.21 719.22 290.11 720.83 290ZM714.83 290.97C714.72 291.31 714.61 291.66 714.5 292C713.17 292.33 711.83 292.67 710.5 293C710 292.94 709.5 292.89 709 292.83C709 292.53 709 292.23 709 291.93C710.94 291.61 712.89 291.29 714.83 290.97ZM699.66 293.7C701.07 293.85 702.47 294.01 703.87 294.17C704.75 294.75 705.62 295.34 706.5 295.92C705.65 299.25 707.47 302.43 705.56 305.5C708.59 308.8 708.25 315.09 708.43 319.5C708.49 321.04 709.42 322.73 708.65 324.3C708.21 325.19 708.11 323.98 707.53 324.25C706.14 324.89 708.09 324.38 706.52 325.5C710.95 328.23 706.52 328.01 707.5 332.7C704.32 335.5 703.05 333.66 700.18 336.16C690.58 334.87 684.38 327.02 682.33 318C682.57 317.83 682.81 317.67 683.05 317.5C682.75 316 682.45 314.5 682.15 313C682.79 302.97 689.69 295.34 699.66 293.7ZM764.11 322.49C763.21 323.5 762.32 324.51 761.42 325.51C761.45 324.68 761.47 323.84 761.5 323C762.37 322.83 763.24 322.66 764.11 322.49ZM761.42 325.51C759.99 327.13 758.56 328.74 757.12 330.36C756.75 330.07 756.37 329.79 756 329.5C757.17 328 758.33 326.5 759.5 325C760.14 325.17 760.78 325.34 761.42 325.51ZM354.76 334.07C355 334.38 355.25 334.69 355.5 335C357 334.95 358.5 334.89 360 334.84C360.33 334.78 360.67 334.73 361 334.68C361.33 335.29 361.67 335.89 362 336.5C359.97 336.22 358.46 336.82 356.69 336.73C352.75 336.53 350.46 333.17 346.01 335.69C345.01 335.07 344 334.45 343 333.83C346.92 333.91 350.84 333.99 354.76 334.07ZM693.28 405.05C692.74 405.78 692.21 406.52 691.67 407.26C691.4 407.07 691.53 406.59 691.33 406.32C690.37 404.99 690.03 406.43 689.24 406.5C686.43 410.61 685.02 412.71 681 415.5C680.77 416.5 680.53 417.5 680.3 418.5C679.14 419.33 677.99 420.17 676.83 421C675.89 422.28 674.94 423.56 673.99 424.83C673.41 425.63 672.84 426.43 672.27 427.23C669.81 429.76 667.36 432.3 664.91 434.83C665.04 435.06 665.17 435.28 665.3 435.5C664.48 436.04 663.66 436.59 662.83 437.13C661.57 438.7 660.3 440.27 659.04 441.83C658.64 442.33 658.24 442.83 657.83 443.33C657.06 443.88 656.28 444.44 655.5 445C655.42 445.61 655.34 446.22 655.26 446.83C654.78 447.22 654.31 447.61 653.83 448C653.99 448.17 654.14 448.33 654.3 448.5C653.37 449 652.43 449.5 651.5 450C651.43 450.61 651.36 451.22 651.28 451.83C650.13 452.89 648.98 453.94 647.83 455C647.06 455.67 646.28 456.33 645.5 457C645.45 457.61 645.41 458.22 645.36 458.83C640.74 463.22 636.12 467.61 631.5 472C631.75 472.45 632.01 472.9 632.26 473.35C630.27 474.95 628.27 476.56 626.27 478.17C625.85 477.95 625.42 477.72 625 477.5C623.71 478.71 622.41 479.91 621.12 481.12C620.24 481.08 619.37 481.04 618.5 481C617.33 481.5 616.17 482 615 482.5C615.08 483.02 615.17 483.54 615.25 484.06C614.78 484.29 614.31 484.51 613.83 484.74C613.06 484.49 612.28 484.25 611.5 484C610.5 484.43 609.5 484.87 608.5 485.3C605 485.26 601.5 485.21 598 485.17C595.2 483.54 592.37 482.66 589.5 483.3C588.61 482.35 583.36 477.51 582 477.58C581.45 477.61 581.04 478.19 580.5 478.3C578.8 475.13 570.25 466.86 567 465.27C567.1 464.34 567.2 463.42 567.31 462.5C566.26 462 565.21 461.5 564.17 461C563.61 460 563.06 459 562.5 458C561.48 457.28 560.46 456.56 559.43 455.83C560.48 450.06 557.74 452.51 555.5 452C556.86 447.55 555.87 451.04 555.31 448.32C555.13 447.42 555.85 447.14 555.92 446.34C555.95 446.03 555.77 445.36 555.48 445.49C554.76 445.83 555.06 446.48 554.5 447.01C554.78 443.62 555.17 440.84 558.5 438.83C556.01 438.39 555.02 439.32 554.71 435.82C554.64 435.04 553.95 434.65 554.27 433.75C554.56 432.91 558.15 430.98 557.49 429.56C557.29 429.13 556.69 429.64 556.5 429.52C555.53 429.02 556.22 428.08 554.93 428.71C554.54 428.9 555.2 430.33 554.76 430.38C554.45 430.42 554.66 429.76 554.49 429.5C554.18 429.01 553.41 428.15 553.29 427.57C553.17 427.02 554.13 426.39 553.73 425.81C553.36 425.28 552.86 426.29 552.39 426.29C551.18 426.28 550.28 425.86 549.17 425.5C550.26 422.88 551.05 424.21 552.61 422.5C545.57 421.39 550.86 420.05 550.62 417.73C550.35 415.24 547.89 415.76 550.5 413C552.03 415.26 551.82 415.55 554.5 415.34C556.95 418.16 555.96 418.91 560.01 420.5C560.84 422.41 561.67 424.31 562.5 426.22C563.99 426.98 565.48 427.74 566.97 428.5C567.08 428.75 566.63 428.95 566.58 429.22C566.54 429.49 567.9 430.15 568.1 430.43C569.56 432.41 572.1 437.66 575.23 437.02C577.15 439.35 579.06 441.67 580.97 444C580.65 444.5 580.32 445 580 445.5C580.67 446.17 581.33 446.83 582 447.5C582.89 447.75 583.77 448 584.66 448.25C589.29 452.36 594.06 457.81 600.61 458.66C608.27 459.67 614.95 454.65 620.01 449.51C630.59 438.78 639.2 426.18 649.76 415.44C650.34 415.63 650.92 415.81 651.5 416C652 415.5 652.5 415 653 414.5C652.69 413.95 652.38 413.4 652.07 412.85C655.29 409.04 658.52 405.24 661.74 401.43C662.49 401.45 663.25 401.48 664 401.5C664.73 400.17 665.46 398.83 666.2 397.5C668.88 395.22 671.44 392.46 674.85 391.5C674.49 390.28 674.12 389.07 673.76 387.85C680.79 379.55 687.83 371.26 694.86 362.96C695.96 362.14 697.05 361.32 698.15 360.5C700.76 363.35 699.18 359.28 700.85 361.5C700.79 364.57 700.24 367.52 702.76 369.5C701.75 372.23 699.37 376.51 702.5 378.53C700.17 381.68 700.58 383.5 702.72 386.5C700.75 388.59 698.16 393.36 695.5 393.35C693.92 397.07 692.33 400.78 690.75 404.5C691.59 404.68 692.44 404.86 693.28 405.05ZM431.1 385.77C431.78 389.16 432.45 392.55 433.13 395.94C432.75 397.13 432.38 398.31 432 399.5C431.2 395.48 431.6 390.66 428.5 388C428.45 389.71 428.15 393.73 425.24 393.12C424.76 393.02 424.39 392.47 423.9 392.5C424.43 393.67 424.97 394.83 425.5 396C423.83 394.92 426.57 395.41 424.5 394.73C422.45 394.06 418.8 400.14 417.04 400.57C416.64 400.67 416.75 400.05 416.5 400C415.14 402.46 415.84 403.86 412.55 403C412.26 399.29 412.33 395.5 412.34 391.83C412.35 389.67 415.55 387.67 413.5 386.5C416.85 383.64 422.81 381.58 426.91 381.5C428.31 382.92 429.71 384.35 431.1 385.77ZM408.1 393C407.64 391.64 407.18 390.28 406.73 388.92C406.74 388.78 406.75 388.64 406.76 388.5C409.05 390.97 408.73 389.23 408.1 393ZM409.75 399.12C409.4 397.73 409.04 396.34 408.69 394.95C409.29 394.3 409.9 393.65 410.5 393C410.98 395.53 410.9 395.56 409.44 397.5C409.54 398.04 409.65 398.58 409.75 399.12ZM382.99 403.05C382.66 403.53 382.33 404.02 382 404.5C382.5 406 383 407.5 383.5 409C383.94 408.67 384.38 408.33 384.82 408C392.85 432.64 370.74 459.63 347.43 464.89C345.79 464.26 344.14 463.63 342.5 463C341.83 463.67 341.17 464.33 340.5 465C338.67 465.06 336.83 465.11 335 465.17C333.5 464.51 333.32 463.23 333.28 463.22C331.97 462.78 331.56 463.87 329.5 463C330.33 461.83 331.17 460.67 332 459.5C331.4 458.9 329.49 457.62 329.44 457.5C329.31 457.18 330.52 456.84 330.59 456.47C330.82 455.33 330.01 452.84 330 451.5C333.42 449.79 334.64 450.87 334.5 446.7C340.09 449.12 339.81 445.91 345.44 444.76C359.19 441.96 370.5 435.81 377.45 423.39C377.61 423.01 377.77 422.63 377.93 422.26C379.75 416.06 379.98 410.43 379.66 404C379.7 403.65 379.73 403.3 379.77 402.96C380.01 402.64 380.26 402.32 380.5 402C381.33 402.35 382.16 402.7 382.99 403.05ZM529 403.22C529.33 403.65 529.67 404.07 530 404.5C528.17 404.67 526.33 404.83 524.5 405C524.29 404.59 524.08 404.18 523.87 403.77C525.58 403.59 527.29 403.4 529 403.22ZM521 404.13C521.33 404.59 521.67 405.04 522 405.5C520.06 405.75 520.34 405.83 518.85 404.8C519.56 404.58 520.28 404.35 521 404.13ZM517 405.22C517.33 405.65 517.67 406.07 518 406.5C516.83 407 515.67 407.5 514.5 408C514.33 407.46 514.17 406.91 514 406.37C515 405.98 516 405.6 517 405.22ZM517.26 445.07C517.67 445.45 518.09 445.83 518.5 446.21C519 446.11 519.5 446.01 520 445.9C518.95 446.34 517.9 446.78 516.85 447.22C516.74 447.16 516.62 447.09 516.5 447.03C516.75 446.37 517 445.72 517.26 445.07ZM506.39 454.16C505 455.58 503.6 457.01 502.2 458.43C501.8 458.12 501.4 457.81 501 457.5C502.5 456 504 454.5 505.5 453C505.8 453.39 506.1 453.77 506.39 454.16ZM271 483C270.5 483 270 483 269.5 483C269 483.5 268.5 484 268 484.5C268.33 484.81 268.67 485.12 269 485.43C269.11 485.66 269.21 485.89 269.32 486.12C264.14 491.35 257.28 495.16 251.93 500.43C245.95 506.33 241.56 513.36 236.15 519.69C235.6 519.46 235.05 519.23 234.5 519C234.08 520.5 233.65 522 233.23 523.5C233.4 523.64 233.58 523.78 233.76 523.92C231.54 528.39 229.32 532.86 227.09 537.33C226.56 537.22 226.03 537.11 225.5 537C225 537.83 224.5 538.67 224 539.5C223.97 540.28 224.21 541.94 223.93 542.66C223.65 543.38 222.41 543.99 222.34 544.69C222.17 546.46 222.96 544.55 223.3 546.5C221.31 548.28 221.27 547.65 221 550.5C221.42 550.85 221.84 551.2 222.26 551.55C222 552.7 221.75 553.85 221.5 555C221.03 555 220.57 555 220.1 555C218.87 547.69 219.64 539.76 220.69 532.45C224.35 507.01 237.7 482.77 259.02 467.88C260.18 467.92 261.34 467.96 262.5 468C263 467.5 263.5 467 264 466.5C263.9 465.92 263.8 465.34 263.7 464.76C265.79 463.46 267.89 462.15 269.98 460.84C270.41 460.57 270.83 460.3 271.26 460.03C272.71 459.3 275.45 458.97 276.34 458.47C276.88 458.17 277.01 457.4 277.5 457.02C279.64 458.21 280.27 458.67 282 457.5C283.17 458.67 284.33 459.83 285.5 461C284.74 465.08 286.24 463.59 286.75 465.69C287.1 467.14 285.21 467.44 285.22 468.66C285.23 469.67 287.04 470.54 287.5 471C285.71 473.73 284.34 473.65 284.5 477.23C284.04 476.81 283.34 475.4 282.53 475.41C281.87 475.41 282.11 476.97 281.81 477.25C280.45 478.57 280.67 476.47 278.5 480.02C274.9 478.78 273.79 481.59 271 483ZM510.97 513.87C511.48 514.25 511.99 514.62 512.5 515C513.02 515 513.53 515 514.05 515C514.74 522.11 514.33 529.35 514.31 536.5C514.26 549.16 514.28 561.84 514.36 574.5C514.46 589.8 515.66 604.25 501.01 613.51C490.81 619.95 477.45 617.4 466 617.63C465.83 617.42 465.67 617.21 465.5 617C463.17 617 460.83 617 458.5 617C458.33 616.72 458.17 616.44 458 616.17C461.83 616 465.67 615.83 469.5 615.66C467.34 614.97 465.51 614.37 463.54 612.5C466.44 608.25 465.57 600.54 465.15 595.52C465.11 595.08 464.53 593.92 464.58 593.59C464.64 593.2 465.46 592.98 465.6 592.44C465.8 591.61 465.33 590.67 465.44 589.79C465.56 588.73 466.66 587.52 466.64 586.53C466.62 585.45 465.77 583.69 465.59 582.5C467.21 580.11 468.95 578.73 467.89 575.82C469.09 575.71 470.3 575.61 471.5 575.5C471.99 573.3 472.48 571.1 472.98 568.9C473.96 567.57 474.95 566.24 475.94 564.9C477.38 564.77 478.83 564.63 480.27 564.5C479.39 560.05 481.4 561.55 483.59 558.34C485.96 554.87 486.6 550.26 490 547.5C490.04 546.41 490.09 545.31 490.13 544.22C497.08 534.1 504.02 523.99 510.97 513.87ZM270.75 528C264.83 542.85 262.74 566.35 281.16 573.36C284.33 574.57 287.64 574.85 291 575.06C297 575.31 303 575.55 309 575.79C312.44 576.45 316.89 575.41 320.47 576.32C321.14 576.49 321.83 577.46 322.46 577.47C323.09 577.48 323.85 576.53 324.52 576.38C329.05 575.37 337.54 576.04 340.5 579C333.71 578.55 334.59 578.65 333.09 585.5C334.56 585.26 336.03 585.03 337.5 584.79C336.65 587.36 336.13 590.89 333.29 592.5C335.26 596.12 333.5 595.1 333.57 596.5C333.59 596.82 334.53 597.24 334.67 597.63C335.32 599.44 334.37 597.55 334.78 599.5C334.38 599.88 332.68 601.06 332.59 601.53C332.48 602.2 334.43 604.67 333.15 606.36C331.67 608.3 333.41 605.45 331.5 607.06C331.31 605.87 331.13 604.69 330.94 603.5C329.05 605.4 327.89 609.81 332.5 607.94C332.46 608.51 332.93 608.86 332.72 609.44C332.45 610.18 330.24 610.35 331.85 611.58C332.88 612.37 335.72 612.24 337 612.5C334.31 613.08 330.93 613.57 329 614.91C324.3 614.85 320.54 617.58 315.5 616.83C313.92 616.6 312.79 615.55 311.31 615.19C309.68 614.79 308.11 615.46 306.53 615.23C303.98 614.85 302.82 613.87 300.14 614.84C296.42 613.44 292.71 612.04 289 610.63C289.67 610.26 290.33 609.88 291 609.5C287.5 607.76 284 606.02 280.5 604.27C278.23 600.34 277.4 602.34 274.68 599.33C274.34 598.99 274.01 598.66 273.68 598.33C273.34 597.99 273.01 597.66 272.68 597.33C272.02 596.72 271.36 596.11 270.7 595.5C270.8 594.83 270.9 594.17 271 593.5C270.5 593 270 592.5 269.5 592C268.64 591.76 267.79 591.52 266.93 591.28C263.36 587.69 260.76 581.7 260.02 576.72C259.86 573.05 258.91 568.84 258.93 565.47C258.94 563.57 258.74 561.4 259.03 559.53C259.2 558.48 259.99 557.53 259.97 556.47C259.95 555.01 258.86 553.89 258.86 552.5C258.86 550.53 260.42 548.25 260.81 546.31C261.58 542.47 262.03 538.12 264.16 534.66C265.55 532.38 267.25 530.38 268.5 528C269.25 528 270 528 270.75 528ZM357 573.18C357.67 573.62 358.33 574.06 359 574.5C357.5 574.67 356 574.83 354.5 575C354.39 574.62 354.29 574.23 354.18 573.85C355.12 573.62 356.06 573.4 357 573.18ZM347 574.45C348.33 574.35 349.67 574.26 351 574.17C350.83 574.78 350.67 575.39 350.5 576C349.33 575.48 348.17 574.96 347 574.45Z" fill="#c19943" fill-rule="evenodd" stroke="#c19943" stroke-width="0.25" stroke-linejoin="round"/>
<path d="M779 278.52C778.69 278.65 778.38 278.78 778.06 278.92C778.38 278.78 778.69 278.65 779 278.52ZM772.8 279.94C771.14 281.46 769.49 282.98 767.83 284.5C769.1 288.19 765.45 288.18 767.44 294.5C767.02 294.74 765.84 294.99 765.6 295.53C765.56 295.64 766.13 297.29 766.14 297.5C766.23 299.67 765.08 300.88 766.5 302.52C764.57 304.71 764.38 306.36 764.46 309.44C764.47 309.98 764.94 310.87 764.79 311.38C764.63 311.95 763.65 312.11 763.57 312.54C763.38 313.54 765.03 315.63 765.5 316.5C768.63 315.26 770.53 311.98 772.91 309.46C775.86 306.34 780.6 302.85 782.7 299.14C783.32 298.05 783.13 297.07 783.6 296.03C784.5 294.07 788.92 289.94 790.5 288C791.68 287.77 792.85 287.54 794.03 287.31C784.05 299.04 774.08 310.76 764.11 322.49C763.24 322.66 762.37 322.83 761.5 323C761.47 323.84 761.45 324.68 761.42 325.51C760.78 325.34 760.14 325.17 759.5 325C758.33 326.5 757.17 328 756 329.5C756.37 329.79 756.75 330.07 757.12 330.36C756.7 330.9 756.27 331.45 755.84 332C752.14 333.09 751.05 336.25 748.75 338.98C745.11 343.29 732.88 358.64 729.31 360.6C728.87 360.57 728.44 360.53 728 360.5C727.33 361.17 726.67 361.83 726 362.5C726.2 363.04 726.4 363.58 726.6 364.12C726.44 364.77 726.27 365.43 726.11 366.08C724.91 366.72 723.7 367.36 722.5 368C722 368.83 721.5 369.67 721 370.5C720.67 371.62 720.33 372.74 720 373.86C719.64 374.24 719.28 374.62 718.91 375C718.44 375 717.97 375 717.5 375C716.67 375.83 715.83 376.67 715 377.5C715.08 377.99 715.16 378.49 715.24 378.98C707.92 387.67 700.6 396.36 693.28 405.05C692.44 404.86 691.59 404.68 690.75 404.5C692.33 400.78 693.92 397.07 695.5 393.35C698.16 393.36 700.75 388.59 702.72 386.5C700.58 383.5 700.17 381.68 702.5 378.53C699.37 376.51 701.75 372.23 702.76 369.5C700.24 367.52 700.79 364.57 700.85 361.5C699.18 359.28 700.76 363.35 698.15 360.5C697.05 361.32 695.96 362.14 694.86 362.96C701.39 354.81 707.92 346.65 714.44 338.5C710.1 337.57 703.47 338.96 700.18 336.16C703.05 333.66 704.32 335.5 707.5 332.7C706.52 328.01 710.95 328.23 706.52 325.5C708.09 324.38 706.14 324.89 707.53 324.25C708.11 323.98 708.21 325.19 708.65 324.3C709.42 322.73 708.49 321.04 708.43 319.5C708.25 315.09 708.59 308.8 705.56 305.5C707.47 302.43 705.65 299.25 706.5 295.92C705.62 295.34 704.75 294.75 703.87 294.17C704.75 294.11 705.62 294.06 706.5 294C707.33 293.61 708.17 293.22 709 292.83C709.5 292.89 710 292.94 710.5 293C711.83 292.67 713.17 292.33 714.5 292C714.61 291.66 714.72 291.31 714.83 290.97C715.22 290.75 715.61 290.54 716 290.32C716.17 290.55 716.33 290.77 716.5 291C717.83 291 719.17 291 720.5 291C720.61 290.67 720.72 290.33 720.83 290C725.36 286.99 733.05 287.08 738.5 286.11C749.67 284.12 761.54 280.25 772.8 279.94ZM419.17 362.89C424.39 366.81 430.57 379.36 431.1 385.77C429.71 384.35 428.31 382.92 426.91 381.5C422.81 381.58 416.85 383.64 413.5 386.5C415.55 387.67 412.35 389.67 412.34 391.83C412.33 395.5 412.26 399.29 412.55 403C412.27 403.5 411.98 404 411.7 404.5C413.78 409.31 413 415.13 413 420.5C412.77 420.67 412.55 420.83 412.32 421C411.47 413.71 410.61 406.41 409.75 399.12C409.65 398.58 409.54 398.04 409.44 397.5C410.9 395.56 410.98 395.53 410.5 393C409.9 393.65 409.29 394.3 408.69 394.95C408.49 394.3 408.29 393.65 408.1 393C408.73 389.23 409.05 390.97 406.76 388.5C406.75 388.64 406.74 388.78 406.73 388.92C404.11 383.53 401.48 378.13 398.86 372.74C398.96 372.16 399.07 371.58 399.17 371C402.37 372.34 402.46 376.37 404.5 379C404.82 378.68 405.54 378.92 405.78 378.53C406.39 377.55 405.71 376.05 406.21 375.03C406.69 374.03 407.91 372.9 408.5 372C408.51 372.02 408.81 374.7 410.04 373.36C410.4 372.97 409.59 372.12 409.98 371.74C411.09 370.65 413.15 370.73 414.53 370.5C415 366.05 416.71 366.88 419.17 362.89ZM378 394.06C378.67 395.04 379.34 396.02 380.01 396.99C379.62 396.94 379.22 396.89 378.83 396.83C378.56 396.79 378.28 396.74 378 396.69C377.66 396.24 377.31 395.78 376.96 395.33C377.31 394.91 377.65 394.49 378 394.06ZM380.01 396.99C380.31 397.3 380.61 397.6 380.91 397.91C380.61 397.6 380.31 397.3 380.01 396.99ZM378.04 398.25C378.17 398.63 378.3 399.02 378.44 399.41C378.3 399.02 378.17 398.63 378.04 398.25ZM379.14 402.96C379.35 402.96 379.56 402.96 379.77 402.96C379.73 403.3 379.7 403.65 379.66 404C379.49 403.65 379.31 403.3 379.14 402.96ZM691.67 407.26C685.15 414.55 678.64 421.84 672.13 429.13C672.18 428.5 672.22 427.86 672.27 427.23C672.84 426.43 673.41 425.63 673.99 424.83C674.99 424.06 676 423.28 677 422.5C676.94 422 676.89 421.5 676.83 421C677.99 420.17 679.14 419.33 680.3 418.5C680.53 417.5 680.77 416.5 681 415.5C685.02 412.71 686.43 410.61 689.24 406.5C690.03 406.43 690.37 404.99 691.33 406.32C691.53 406.59 691.4 407.07 691.67 407.26ZM511.03 407.78C510.38 409.4 510.26 409.43 508.21 410.5C508.7 411.6 508.97 410.42 509.08 411.5C509.13 411.93 507.86 412.61 507.59 412.89C505.82 414.72 504.21 416.74 502.5 418.5C502.32 420.58 503.38 426.47 502.38 427.97C501.96 428.61 500.68 428.37 500.55 428.57C499.8 429.72 501.12 430.07 501.66 430.5C499.26 432.61 498.33 430.88 500.05 435.5C497.73 435.49 497.56 436.39 496.04 437.5C496.14 434.32 497.45 433.29 498.85 430.5C497.57 430.71 495.5 430.58 494.48 431.45C494.42 431.51 494.48 432.46 494.26 432.75C493.94 433.14 493.29 433.1 492.92 433.44C491.31 434.89 494.36 437.42 495.27 438.5C492.63 437.76 493.54 436.93 492.35 438.5C491.49 440.7 492.32 438.96 493.79 440.66C494.31 441.26 493.1 442.22 494.27 442.59C495.26 442.91 496.28 439.29 496.5 438.74C498.68 441.65 497.06 444.21 498.1 447.53C498.49 448.78 499.46 448.47 499.95 449.57C500.46 450.7 500.32 452.65 500.5 453.89C502.05 451.45 504.84 450.91 507.15 449.5C509.61 449.53 509 449.3 510.41 451.05C509.07 452.09 507.73 453.12 506.39 454.16C506.1 453.77 505.8 453.39 505.5 453C504 454.5 502.5 456 501 457.5C501.4 457.81 501.8 458.12 502.2 458.43C502.08 458.62 501.96 458.81 501.83 459C501.39 459 500.94 459 500.5 459C499 460.5 497.5 462 496 463.5C496.11 464.02 496.23 464.55 496.34 465.07C493.92 468.16 491.5 471.26 489.07 474.35C485.59 475.79 485.05 478.45 483.17 481.34C481.86 483.36 479.96 485.08 478.53 487.03C476.25 490.16 474.77 493.81 472.59 497.05C458.33 518.2 444.46 540.02 428.11 559.64C423.75 564.87 418.82 569.9 413.77 574.49C410.29 577.65 404.46 580.04 403 584.74C401.93 585.55 400.87 586.35 399.8 587.16C399.03 587.1 398.27 587.05 397.5 587C396.11 588.06 394.72 589.11 393.33 590.17C392.39 590.11 391.44 590.06 390.5 590C389.67 590.5 388.83 591 388 591.5C388.06 592.14 388.11 592.79 388.17 593.43C387.53 594.3 386.9 595.16 386.27 596.02C383.22 597.83 380.16 599.63 377.11 601.44C375.28 600.62 375.49 601.44 375.32 599.5C378.42 597.75 380.46 593.97 383.53 592.49C383.9 592.31 384.38 592.77 384.95 592.46C386.98 591.38 388.49 589.08 390.01 587.5C390.95 586.53 392.67 586.39 393.46 585.5C393.7 585.23 394.86 582.14 395.1 581.5C394.24 579.27 393.37 577.04 392.5 574.81C391.82 575.11 392.39 575.7 391.58 575.74C391.13 575.76 389.24 571.81 389.32 571.67C389.93 570.54 391.5 571.2 392.44 570.66C392.82 570.44 392.76 569.79 393.1 569.5C391.51 568.41 392.03 569.69 389.5 569.04C390.11 563.31 385.71 567.35 382.93 564.03C386.57 561.86 390.2 559.69 393.84 557.53C396.59 556.97 397.99 555.51 400 553.5C399.67 553.32 399.34 553.14 399.01 552.96C402.02 549.33 406.04 546.29 409.31 542.8C414.12 537.67 418.34 531.71 422.57 526.11C428.79 517.85 434.17 509.02 439.98 500.48C451.82 483.05 463.66 465.54 475.82 448.31C482.84 438.37 489.16 427.84 497.21 418.68C500.94 414.43 505.61 409.57 511.03 407.78ZM672.13 429.13C666.16 436.08 660.2 443.04 654.23 449.99C654.1 449.33 653.97 448.66 653.83 448C654.31 447.61 654.78 447.22 655.26 446.83C656.17 446.06 657.09 445.28 658 444.5C657.94 444.11 657.89 443.72 657.83 443.33C658.24 442.83 658.64 442.33 659.04 441.83C660.36 440.72 661.68 439.61 663 438.5C662.94 438.04 662.89 437.59 662.83 437.13C663.66 436.59 664.48 436.04 665.3 435.5C665.17 435.28 665.04 435.06 664.91 434.83C667.32 432.93 669.72 431.03 672.13 429.13ZM559.43 455.83C560.46 456.56 561.48 457.28 562.5 458C563.06 459 563.61 460 564.17 461C564.06 461.83 563.96 462.67 563.85 463.5C564.9 464.09 565.95 464.68 567 465.27C570.25 466.86 578.8 475.13 580.5 478.3C581.04 478.19 581.45 477.61 582 477.58C583.36 477.51 588.61 482.35 589.5 483.3C592.37 482.66 595.2 483.54 598 485.17C598.06 485.45 598.12 485.73 598.19 486C569.47 483.87 560.07 446.45 532.51 444.15C528.2 443.79 524.12 444.8 520 445.9C519.5 446.01 519 446.11 518.5 446.21C518.09 445.83 517.67 445.45 517.26 445.07C524.41 441.41 533.27 442.5 540.5 445.01C541.59 445.39 543.32 445.16 544.31 445.61C546.3 446.52 547.81 447.79 550 448.5C552.38 451.78 555.42 455.22 559.43 455.83ZM517.26 445.07C517 445.72 516.75 446.37 516.5 447.03C516.62 447.09 516.74 447.16 516.85 447.22C516.28 447.49 515.7 447.75 515.13 448.01C514.42 447.51 513.71 447 513 446.5C514.42 446.02 515.84 445.55 517.26 445.07ZM651.28 451.83C651.55 452 651.82 452.17 652.09 452.34C650.79 453.88 649.49 455.42 648.19 456.95C648.07 456.3 647.95 455.65 647.83 455C648.98 453.94 650.13 452.89 651.28 451.83ZM645.36 458.83C645.59 458.98 645.81 459.13 646.04 459.27C641.45 463.96 636.86 468.66 632.26 473.35C632.01 472.9 631.75 472.45 631.5 472C636.12 467.61 640.74 463.22 645.36 458.83ZM271 483C270.75 483.8 270.5 484.6 270.25 485.41C269.83 485.41 269.42 485.42 269 485.43C268.67 485.12 268.33 484.81 268 484.5C268.5 484 269 483.5 269.5 483C270 483 270.5 483 271 483ZM272.89 484.21C272.6 484.39 272.3 484.58 272 484.77C272.3 484.58 272.6 484.39 272.89 484.21ZM282.5 510C281.5 511.43 280.5 512.87 279.5 514.3C279.33 513.53 279.16 512.77 278.99 512C280.16 511.33 281.33 510.66 282.5 510ZM277.81 515.86C277.04 517.14 276.27 518.43 275.5 519.72C274.71 519.09 273.93 518.46 273.14 517.83C274.26 516.7 275.38 515.56 276.5 514.42C276.94 514.9 277.38 515.38 277.81 515.86ZM371.97 568.88C371.98 569.42 371.99 569.96 372 570.5C371.17 571 370.33 571.5 369.5 572C368.31 571.66 367.12 571.32 365.93 570.97C367.94 570.28 369.95 569.58 371.97 568.88ZM472.98 568.9C472.48 571.1 471.99 573.3 471.5 575.5C470.3 575.61 469.09 575.71 467.89 575.82C469.58 573.51 471.28 571.21 472.98 568.9ZM345 574.73C333 575.09 321 575.44 309 575.79C303 575.55 297 575.31 291 575.06C309 574.95 327 574.84 345 574.73ZM467.89 575.82C468.95 578.73 467.21 580.11 465.59 582.5C465.77 583.69 466.62 585.45 466.64 586.53C466.66 587.52 465.56 588.73 465.44 589.79C465.33 590.67 465.8 591.61 465.6 592.44C465.46 592.98 464.64 593.2 464.58 593.59C464.53 593.92 465.11 595.08 465.15 595.52C465.57 600.54 466.44 608.25 463.54 612.5C465.51 614.37 467.34 614.97 469.5 615.66C465.67 615.83 461.83 616 458 616.17C456 615.94 454 615.72 452 615.5C456.66 613.45 451.84 613.93 449.5 612.65C448.75 607.4 453.37 608.28 454.5 604.15C454.52 604.13 453.14 602.77 453.25 601.65C453.33 600.84 454.39 600.97 454.59 600.49C454.84 599.9 454.25 598.48 454.38 597.9C455.01 595.04 456.61 592.97 459 591.5C457.47 587.88 461.78 587.25 460.19 584.3C462.76 581.47 465.32 578.65 467.89 575.82ZM271.97 597.29C272.21 597.3 272.44 597.31 272.68 597.33C272.78 597.56 272.88 597.79 272.98 598.02C272.64 597.78 272.31 597.53 271.97 597.29ZM272.98 598.02C273.21 598.12 273.44 598.22 273.68 598.33C273.77 598.56 273.87 598.8 273.96 599.03C273.64 598.7 273.31 598.36 272.98 598.02ZM273.96 599.03C274.2 599.13 274.44 599.23 274.68 599.33C274.68 599.57 274.68 599.81 274.69 600.05C274.45 599.71 274.2 599.37 273.96 599.03ZM375.1 602.32C365.15 609.14 344.6 614.54 332.63 616.18C331.59 616.12 330.54 616.06 329.5 616C329.33 615.64 329.17 615.27 329 614.91C333.4 615.07 336.79 612.98 341 612.58C345.67 612.14 351.04 611.61 354.5 608C357.66 608.66 353.55 608.72 356.47 608.87C358.86 608.99 369.66 602.81 371.5 601C372.7 601.44 373.9 601.88 375.1 602.32ZM325 617.95C321.33 617.96 317.67 617.96 314 617.96C317.67 617.96 321.33 617.96 325 617.95Z" fill="#ebd47e" fill-rule="evenodd" stroke="#ebd47e" stroke-width="0.25" stroke-linejoin="round"/>
<path d="M709 291.93C709 292.23 709 292.53 709 292.83C708.17 293.22 707.33 293.61 706.5 294C705.62 294.06 704.75 294.11 703.87 294.17C702.47 294.01 701.07 293.85 699.66 293.7C702.77 293.11 705.89 292.52 709 291.93ZM682.15 313C682.45 314.5 682.75 316 683.05 317.5C682.81 317.67 682.57 317.83 682.33 318C682.27 316.33 682.21 314.67 682.15 313ZM354.76 334.07C356.34 334.09 357.92 334.1 359.5 334.12C359.67 334.36 359.83 334.6 360 334.84C358.5 334.89 357 334.95 355.5 335C355.25 334.69 355 334.38 354.76 334.07ZM419.17 362.89C416.71 366.88 415 366.05 414.53 370.5C413.15 370.73 411.09 370.65 409.98 371.74C409.59 372.12 410.4 372.97 410.04 373.36C408.81 374.7 408.51 372.02 408.5 372C407.91 372.9 406.69 374.03 406.21 375.03C405.71 376.05 406.39 377.55 405.78 378.53C405.54 378.92 404.82 378.68 404.5 379C402.46 376.37 402.37 372.34 399.17 371C395.58 366.98 393.12 362.15 389.25 358.26C387.61 356.61 385.72 354.33 383.67 355.1C378.6 352.45 374.28 348.16 369.26 345.25C361.91 340.98 354.03 338.35 346.01 335.69C350.46 333.17 352.75 336.53 356.69 336.73C358.46 336.82 359.97 336.22 362 336.5C361.67 335.89 361.33 335.29 361 334.68C366.02 334.2 372.09 336.19 376.99 337.42C391.53 341.07 410.08 350.59 419.17 362.89ZM729.31 360.6C728.41 361.77 727.5 362.94 726.6 364.12C726.4 363.58 726.2 363.04 726 362.5C726.67 361.83 727.33 361.17 728 360.5C728.44 360.53 728.87 360.57 729.31 360.6ZM433.13 395.94C434.85 399.86 434.32 405.17 434.21 409.5C433.86 423.9 428.18 439.15 418.26 449.79C415.16 453.11 406.63 461.86 402.19 460C403.7 454.4 407.11 449.12 408.94 443.51C411.34 436.16 411.83 428.66 412.32 421C412.55 420.83 412.77 420.67 413 420.5C413 415.13 413.78 409.31 411.7 404.5C411.98 404 412.27 403.5 412.55 403C415.84 403.86 415.14 402.46 416.5 400C416.75 400.05 416.64 400.67 417.04 400.57C418.8 400.14 422.45 394.06 424.5 394.73C426.57 395.41 423.83 394.92 425.5 396C424.97 394.83 424.43 393.67 423.9 392.5C424.39 392.47 424.76 393.02 425.24 393.12C428.15 393.73 428.45 389.71 428.5 388C431.6 390.66 431.2 395.48 432 399.5C432.38 398.31 432.75 397.13 433.13 395.94ZM673.76 387.85C674.12 389.07 674.49 390.28 674.85 391.5C671.44 392.46 668.88 395.22 666.2 397.5C665.46 398.83 664.73 400.17 664 401.5C663.25 401.48 662.49 401.45 661.74 401.43C665.75 396.9 669.75 392.38 673.76 387.85ZM378 394.06C377.65 394.49 377.31 394.91 376.96 395.33C377.31 394.91 377.65 394.49 378 394.06ZM378.1 397C378.34 396.94 378.59 396.89 378.83 396.83C379.22 396.89 379.62 396.94 380.01 396.99C380.31 397.3 380.61 397.6 380.91 397.91C381.61 399.62 382.3 401.33 382.99 403.05C382.16 402.7 381.33 402.35 380.5 402C380.26 402.32 380.01 402.64 379.77 402.96C379.56 402.96 379.35 402.96 379.14 402.96C378.9 401.77 378.67 400.59 378.44 399.41C378.3 399.02 378.17 398.63 378.04 398.25C378.06 397.83 378.08 397.42 378.1 397ZM382.99 403.05C383.6 404.7 384.21 406.35 384.82 408C384.38 408.33 383.94 408.67 383.5 409C383 407.5 382.5 406 382 404.5C382.33 404.02 382.66 403.53 382.99 403.05ZM523.87 403.77C524.08 404.18 524.29 404.59 524.5 405C526.33 404.83 528.17 404.67 530 404.5C529.67 404.07 529.33 403.65 529 403.22C545.07 402.27 557.78 416.09 567.2 427.31C569.9 430.52 573.06 433.43 575.23 437.02C572.1 437.66 569.56 432.41 568.1 430.43C567.9 430.15 566.54 429.49 566.58 429.22C566.63 428.95 567.08 428.75 566.97 428.5C565.48 427.74 563.99 426.98 562.5 426.22C561.67 424.31 560.84 422.41 560.01 420.5C555.96 418.91 556.95 418.16 554.5 415.34C551.82 415.55 552.03 415.26 550.5 413C547.89 415.76 550.35 415.24 550.62 417.73C550.86 420.05 545.57 421.39 552.61 422.5C551.05 424.21 550.26 422.88 549.17 425.5C550.28 425.86 551.18 426.28 552.39 426.29C552.86 426.29 553.36 425.28 553.73 425.81C554.13 426.39 553.17 427.02 553.29 427.57C553.41 428.15 554.18 429.01 554.49 429.5C554.66 429.76 554.45 430.42 554.76 430.38C555.2 430.33 554.54 428.9 554.93 428.71C556.22 428.08 555.53 429.02 556.5 429.52C556.69 429.64 557.29 429.13 557.49 429.56C558.15 430.98 554.56 432.91 554.27 433.75C553.95 434.65 554.64 435.04 554.71 435.82C555.02 439.32 556.01 438.39 558.5 438.83C555.17 440.84 554.78 443.62 554.5 447.01C555.06 446.48 554.76 445.83 555.48 445.49C555.77 445.36 555.95 446.03 555.92 446.34C555.85 447.14 555.13 447.42 555.31 448.32C555.87 451.04 556.86 447.55 555.5 452C557.74 452.51 560.48 450.06 559.43 455.83C555.42 455.22 552.38 451.78 550 448.5C547.81 447.79 546.3 446.52 544.31 445.61C543.32 445.16 541.59 445.39 540.5 445.01C533.27 442.5 524.41 441.41 517.26 445.07C515.84 445.55 514.42 446.02 513 446.5C513.71 447 514.42 447.51 515.13 448.01C513.55 449.02 511.98 450.04 510.41 451.05C509 449.3 509.61 449.53 507.15 449.5C504.84 450.91 502.05 451.45 500.5 453.89C500.32 452.65 500.46 450.7 499.95 449.57C499.46 448.47 498.49 448.78 498.1 447.53C497.06 444.21 498.68 441.65 496.5 438.74C496.28 439.29 495.26 442.91 494.27 442.59C493.1 442.22 494.31 441.26 493.79 440.66C492.32 438.96 491.49 440.7 492.35 438.5C493.54 436.93 492.63 437.76 495.27 438.5C494.36 437.42 491.31 434.89 492.92 433.44C493.29 433.1 493.94 433.14 494.26 432.75C494.48 432.46 494.42 431.51 494.48 431.45C495.5 430.58 497.57 430.71 498.85 430.5C497.45 433.29 496.14 434.32 496.04 437.5C497.56 436.39 497.73 435.49 500.05 435.5C498.33 430.88 499.26 432.61 501.66 430.5C501.12 430.07 499.8 429.72 500.55 428.57C500.68 428.37 501.96 428.61 502.38 427.97C503.38 426.47 502.32 420.58 502.5 418.5C504.21 416.74 505.82 414.72 507.59 412.89C507.86 412.61 509.13 411.93 509.08 411.5C508.97 410.42 508.7 411.6 508.21 410.5C510.26 409.43 510.38 409.4 511.03 407.78C511.06 407.69 511.08 407.59 511.1 407.5C512.07 407.12 513.03 406.74 514 406.37C514.17 406.91 514.33 407.46 514.5 408C515.67 407.5 516.83 407 518 406.5C517.67 406.07 517.33 405.65 517 405.22C517.62 405.08 518.23 404.94 518.85 404.8C520.34 405.83 520.06 405.75 522 405.5C521.67 405.04 521.33 404.59 521 404.13C521.96 404.01 522.91 403.89 523.87 403.77ZM652.07 412.85C652.38 413.4 652.69 413.95 653 414.5C652.5 415 652 415.5 651.5 416C650.92 415.81 650.34 415.63 649.76 415.44C650.53 414.58 651.3 413.72 652.07 412.85ZM676.83 421C676.89 421.5 676.94 422 677 422.5C676 423.28 674.99 424.06 673.99 424.83C674.94 423.56 675.89 422.28 676.83 421ZM377.93 422.26C377.77 422.63 377.61 423.01 377.45 423.39C377.61 423.01 377.77 422.63 377.93 422.26ZM672.27 427.23C672.22 427.86 672.18 428.5 672.13 429.13C669.72 431.03 667.32 432.93 664.91 434.83C667.36 432.3 669.81 429.76 672.27 427.23ZM662.83 437.13C662.89 437.59 662.94 438.04 663 438.5C661.68 439.61 660.36 440.72 659.04 441.83C660.3 440.27 661.57 438.7 662.83 437.13ZM657.83 443.33C657.89 443.72 657.94 444.11 658 444.5C657.09 445.28 656.17 446.06 655.26 446.83C655.34 446.22 655.42 445.61 655.5 445C656.28 444.44 657.06 443.88 657.83 443.33ZM580.97 444C582.2 445.42 583.43 446.83 584.66 448.25C583.77 448 582.89 447.75 582 447.5C581.33 446.83 580.67 446.17 580 445.5C580.32 445 580.65 444.5 580.97 444ZM331 447.5C327.88 448.12 324.68 447.54 321.53 448.03C317.34 448.69 314.07 449.08 309.7 448.5C316.36 447.76 324.68 445.51 331 447.5ZM653.83 448C653.97 448.66 654.1 449.33 654.23 449.99C653.52 450.78 652.8 451.56 652.09 452.34C651.82 452.17 651.55 452 651.28 451.83C651.36 451.22 651.43 450.61 651.5 450C652.43 449.5 653.37 449 654.3 448.5C654.14 448.33 653.99 448.17 653.83 448ZM647.83 455C647.95 455.65 648.07 456.3 648.19 456.95C647.47 457.73 646.76 458.5 646.04 459.27C645.81 459.13 645.59 458.98 645.36 458.83C645.41 458.22 645.45 457.61 645.5 457C646.28 456.33 647.06 455.67 647.83 455ZM271.26 460.03C270.83 460.3 270.41 460.57 269.98 460.84C270.41 460.57 270.83 460.3 271.26 460.03ZM564.17 461C565.21 461.5 566.26 462 567.31 462.5C567.2 463.42 567.1 464.34 567 465.27C565.95 464.68 564.9 464.09 563.85 463.5C563.96 462.67 564.06 461.83 564.17 461ZM347.43 464.89C344.96 465.46 342.48 466.03 340 466.6C339.83 466.4 339.67 466.2 339.5 466C338 466 336.5 466 335 466C335 465.72 335 465.44 335 465.17C336.83 465.11 338.67 465.06 340.5 465C341.17 464.33 341.83 463.67 342.5 463C344.14 463.63 345.79 464.26 347.43 464.89ZM263.7 464.76C263.8 465.34 263.9 465.92 264 466.5C263.5 467 263 467.5 262.5 468C261.34 467.96 260.18 467.92 259.02 467.88C260.58 466.84 262.14 465.8 263.7 464.76ZM335 466C335.34 466.38 335.67 466.76 336.01 467.14C334.67 467.35 333.34 467.57 332 467.78C329.33 467.35 326.67 466.93 324 466.5C325.5 466 327 465.5 328.5 465C330.67 465.33 332.83 465.67 335 466ZM321 467.53C319.33 467.53 317.67 467.53 316 467.53C317.67 467.53 319.33 467.53 321 467.53ZM289 476.53C288 476.91 287 477.29 286 477.67C286.17 476.44 286.33 475.22 286.5 474C287.33 474.5 288.17 475 289 475.5C289 475.84 289 476.19 289 476.53ZM626.27 478.17C624.55 479.15 622.83 480.13 621.12 481.12C622.41 479.91 623.71 478.71 625 477.5C625.42 477.72 625.85 477.95 626.27 478.17ZM621.12 481.12C619.16 482.1 617.2 483.08 615.25 484.06C615.17 483.54 615.08 483.02 615 482.5C616.17 482 617.33 481.5 618.5 481C619.37 481.04 620.24 481.08 621.12 481.12ZM271 483C272.07 483.06 273.14 483.13 274.21 483.19C273.77 483.53 273.33 483.87 272.89 484.21C272.6 484.39 272.3 484.58 272 484.77C271.42 484.98 270.83 485.19 270.25 485.41C270.5 484.6 270.75 483.8 271 483ZM613.83 484.74C609.08 486.54 604.04 486.86 599 486.5C598.73 486.33 598.46 486.17 598.19 486C598.12 485.73 598.06 485.45 598 485.17C601.5 485.21 605 485.26 608.5 485.3C609.5 484.87 610.5 484.43 611.5 484C612.28 484.25 613.06 484.49 613.83 484.74ZM269 485.43C269.42 485.42 269.83 485.41 270.25 485.41C269.94 485.65 269.63 485.88 269.32 486.12C269.21 485.89 269.11 485.66 269 485.43ZM514.05 515C513.53 515 513.02 515 512.5 515C511.99 514.62 511.48 514.25 510.97 513.87C511.48 513.1 511.99 512.32 512.5 511.55C514 513.18 514.03 512.75 514.05 515ZM236.15 519.69C235.35 521.1 234.55 522.51 233.76 523.92C233.58 523.78 233.4 523.64 233.23 523.5C233.65 522 234.08 520.5 234.5 519C235.05 519.23 235.6 519.46 236.15 519.69ZM272.02 519C273 519.5 273.98 520 274.97 520.5C273.56 523 272.16 525.5 270.75 528C270 528 269.25 528 268.5 528C267.25 530.38 265.55 532.38 264.16 534.66C262.03 538.12 261.58 542.47 260.81 546.31C260.42 548.25 258.86 550.53 258.86 552.5C258.86 553.89 259.95 555.01 259.97 556.47C259.99 557.53 259.2 558.48 259.03 559.53C258.74 561.4 258.94 563.57 258.93 565.47C258.91 568.84 259.86 573.05 260.02 576.72C257.62 572.18 257.44 565.63 257.39 560.5C257.24 545.36 262.72 530.81 272.02 519ZM227.09 537.33C225.48 542.07 223.87 546.81 222.26 551.55C221.84 551.2 221.42 550.85 221 550.5C221.27 547.65 221.31 548.28 223.3 546.5C222.96 544.55 222.17 546.46 222.34 544.69C222.41 543.99 223.65 543.38 223.93 542.66C224.21 541.94 223.97 540.28 224 539.5C224.5 538.67 225 537.83 225.5 537C226.03 537.11 226.56 537.22 227.09 537.33ZM490.13 544.22C490.09 545.31 490.04 546.41 490 547.5C486.6 550.26 485.96 554.87 483.59 558.34C481.4 561.55 479.39 560.05 480.27 564.5C478.83 564.63 477.38 564.77 475.94 564.9C480.67 558.01 485.4 551.11 490.13 544.22ZM399.01 552.96C399.34 553.14 399.67 553.32 400 553.5C397.99 555.51 396.59 556.97 393.84 557.53C395.56 556 397.29 554.48 399.01 552.96ZM382.93 564.03C385.71 567.35 390.11 563.31 389.5 569.04C392.03 569.69 391.51 568.41 393.1 569.5C392.76 569.79 392.82 570.44 392.44 570.66C391.5 571.2 389.93 570.54 389.32 571.67C389.24 571.81 391.13 575.76 391.58 575.74C392.39 575.7 391.82 575.11 392.5 574.81C393.37 577.04 394.24 579.27 395.1 581.5C394.86 582.14 393.7 585.23 393.46 585.5C392.67 586.39 390.95 586.53 390.01 587.5C388.49 589.08 386.98 591.38 384.95 592.46C384.38 592.77 383.9 592.31 383.53 592.49C380.46 593.97 378.42 597.75 375.32 599.5C375.49 601.44 375.28 600.62 377.11 601.44C376.44 601.73 375.77 602.02 375.1 602.32C373.9 601.88 372.7 601.44 371.5 601C369.66 602.81 358.86 608.99 356.47 608.87C353.55 608.72 357.66 608.66 354.5 608C351.04 611.61 345.67 612.14 341 612.58C336.79 612.98 333.4 615.07 329 614.91C330.93 613.57 334.31 613.08 337 612.5C335.72 612.24 332.88 612.37 331.85 611.58C330.24 610.35 332.45 610.18 332.72 609.44C332.93 608.86 332.46 608.51 332.5 607.94C327.89 609.81 329.05 605.4 330.94 603.5C331.13 604.69 331.31 605.87 331.5 607.06C333.41 605.45 331.67 608.3 333.15 606.36C334.43 604.67 332.48 602.2 332.59 601.53C332.68 601.06 334.38 599.88 334.78 599.5C334.37 597.55 335.32 599.44 334.67 597.63C334.53 597.24 333.59 596.82 333.57 596.5C333.5 595.1 335.26 596.12 333.29 592.5C336.13 590.89 336.65 587.36 337.5 584.79C336.03 585.03 334.56 585.26 333.09 585.5C334.59 578.65 333.71 578.55 340.5 579C337.54 576.04 329.05 575.37 324.52 576.38C323.85 576.53 323.09 577.48 322.46 577.47C321.83 577.46 321.14 576.49 320.47 576.32C316.89 575.41 312.44 576.45 309 575.79C321 575.44 333 575.09 345 574.73C345.67 574.64 346.33 574.54 347 574.45C348.17 574.96 349.33 575.48 350.5 576C350.67 575.39 350.83 574.78 351 574.17C352.06 574.06 353.12 573.95 354.18 573.85C354.29 574.23 354.39 574.62 354.5 575C356 574.83 357.5 574.67 359 574.5C358.33 574.06 357.67 573.62 357 573.18C359.98 572.44 362.95 571.71 365.93 570.97C367.12 571.32 368.31 571.66 369.5 572C370.33 571.5 371.17 571 372 570.5C371.99 569.96 371.98 569.42 371.97 568.88C375.62 567.26 379.28 565.65 382.93 564.03ZM460.19 584.3C461.78 587.25 457.47 587.88 459 591.5C456.61 592.97 455.01 595.04 454.38 597.9C454.25 598.48 454.84 599.9 454.59 600.49C454.39 600.97 453.33 600.84 453.25 601.65C453.14 602.77 454.52 604.13 454.5 604.15C453.37 608.28 448.75 607.4 449.5 612.65C451.84 613.93 456.66 613.45 452 615.5C454 615.72 456 615.94 458 616.17C458.17 616.44 458.33 616.72 458.5 617C460.83 617 463.17 617 465.5 617C465.67 617.21 465.83 617.42 466 617.63C456.9 618.27 447.63 617.49 438.5 617.44C432.59 617.4 426.53 618.17 420.85 616.5C433.21 610.03 444.25 601.46 453.96 591.46C456.17 589.18 457.92 586.51 460.19 584.3ZM393.33 590.17C392.39 590.78 391.44 591.39 390.5 592C389.72 592.48 388.94 592.96 388.17 593.43C388.11 592.79 388.06 592.14 388 591.5C388.83 591 389.67 590.5 390.5 590C391.44 590.06 392.39 590.11 393.33 590.17ZM266.93 591.28C267.79 591.52 268.64 591.76 269.5 592C270 592.5 270.5 593 271 593.5C270.9 594.17 270.8 594.83 270.7 595.5C271.36 596.11 272.02 596.72 272.68 597.33C272.44 597.31 272.21 597.3 271.97 597.29C270.29 595.28 268.61 593.28 266.93 591.28ZM272.68 597.33C273.01 597.66 273.34 597.99 273.68 598.33C273.44 598.22 273.21 598.12 272.98 598.02C272.88 597.79 272.78 597.56 272.68 597.33ZM273.68 598.33C274.01 598.66 274.34 598.99 274.68 599.33C274.44 599.23 274.2 599.13 273.96 599.03C273.87 598.8 273.77 598.56 273.68 598.33ZM274.68 599.33C277.4 602.34 278.23 600.34 280.5 604.27C284 606.02 287.5 607.76 291 609.5C290.33 609.88 289.67 610.26 289 610.63C283.83 608.11 278 604.82 274.69 600.05C274.68 599.81 274.68 599.57 274.68 599.33ZM329 614.91C329.17 615.27 329.33 615.64 329.5 616C330.54 616.06 331.59 616.12 332.63 616.18C331.42 616.73 330.21 617.28 328.99 617.83C327.66 617.87 326.33 617.91 325 617.95C321.33 617.96 317.67 617.96 314 617.96C311.79 617.93 309.58 617.9 307.37 617.86C307.27 617.41 307.17 616.95 307.07 616.5C304.76 615.95 302.45 615.39 300.14 614.84C302.82 613.87 303.98 614.85 306.53 615.23C308.11 615.46 309.68 614.79 311.31 615.19C312.79 615.55 313.92 616.6 315.5 616.83C320.54 617.58 324.3 614.85 329 614.91Z" fill="#d7b761" fill-rule="evenodd" stroke="#d7b761" stroke-width="0.25" stroke-linejoin="round"/>
</svg>